<svg width="37" height="29" viewBox="0 0 37 29" fill="none" xmlns="http://www.w3.org/2000/svg">
<path d="M18.5155 3.5135C23.1254 3.50888 27.0938 6.76788 27.9856 11.2907C28.0919 11.8355 28.5339 12.2518 29.0841 12.3252C31.9642 12.7358 33.9662 15.4032 33.5561 18.2833C33.1878 20.8696 30.9798 22.7953 28.3675 22.8087H23.9933H23.7933V23.0087V25.196V25.396H23.9933H28.3678L28.3684 25.396C32.7068 25.3829 36.2132 21.8552 36.2 17.5168C36.1891 13.9456 33.7718 10.8366 30.3256 9.93911C28.6321 3.4571 22.0282 -0.463894 15.5157 1.17088L15.5644 1.36468L15.5157 1.17088C10.4466 2.44339 6.75217 6.7939 6.30799 11.9899C2.70845 12.668 0.292015 16.1015 0.891122 19.7345C1.43126 23.01 4.26942 25.4089 7.5891 25.396C7.58926 25.396 7.58943 25.396 7.58959 25.396L13.057 25.396H13.257V25.196V23.0087V22.8087H13.057H7.58879C5.28328 22.8087 3.41427 20.9397 3.41427 18.6342C3.41427 16.3287 5.28328 14.4597 7.58879 14.4597C8.30328 14.4597 8.88243 13.8805 8.88243 13.166L8.88243 13.1658C8.87707 7.84032 13.19 3.51879 18.5155 3.5135Z" fill="#0063AE" stroke="#0063AE" stroke-width="0.4"/>
<path d="M17.6075 14.435L17.6071 14.4354L13.2326 18.8099L13.0912 18.9514L13.2326 19.0928L14.7746 20.6348L14.9157 20.7759L15.0572 20.6351L17.2314 18.4703V28.4769V28.6769H17.4314H19.6187H19.8187V28.4769V18.4718L21.9817 20.6348L22.1231 20.7762L22.2645 20.6348L23.8065 19.0928L23.9479 18.9514L23.8065 18.8099L19.432 14.4354L19.4316 14.435C18.927 13.9334 18.1121 13.9334 17.6075 14.435Z" fill="#0063AE" stroke="#0063AE" stroke-width="0.4"/>
</svg>
