<svg width="34" height="34" viewBox="0 0 34 34" fill="none" xmlns="http://www.w3.org/2000/svg">
<path d="M16.875 0C11.2963 0 6.075 2.75956 2.92831 7.38529C1.0125 10.1846 0 13.4702 0 16.875C0 20.2798 1.0125 23.5654 2.92831 26.3647C6.075 30.9904 11.2963 33.75 16.875 33.75C22.4537 33.75 27.675 30.9904 30.8217 26.3647C32.7375 23.5654 33.75 20.2798 33.75 16.875C33.75 13.4702 32.7375 10.1846 30.8217 7.38529C27.675 2.75956 22.4636 0 16.875 0ZM27.9728 6.94853H23.5555C22.9798 5.26103 22.2551 3.83162 21.4213 2.70993C23.9426 3.5239 26.2059 4.98309 27.9728 6.94853ZM10.6908 15.8824C10.7603 13.4206 11.1077 11.0382 11.6835 8.93382H22.0566C22.6324 11.0382 22.9798 13.4206 23.0493 15.8824H10.6908ZM23.0592 17.8676C22.9897 20.3294 22.6423 22.7118 22.0665 24.8162H11.6835C11.1077 22.7118 10.7603 20.3294 10.6908 17.8676H23.0592ZM16.875 1.98529C18.5327 1.98529 20.2103 3.82169 21.4114 6.94853H12.3386C13.5397 3.82169 15.2173 1.98529 16.875 1.98529ZM12.3287 2.70993C11.4949 3.83162 10.7702 5.26103 10.1945 6.94853H5.77721C7.54412 4.98309 9.80735 3.5239 12.3287 2.70993ZM4.27831 8.93382H9.60882C9.07279 11.0581 8.76507 13.4404 8.70551 15.8824H2.01507C2.18382 13.4107 2.95809 11.0283 4.27831 8.93382ZM4.27831 24.8162C2.95809 22.7217 2.1739 20.3393 2.01507 17.8676H8.70551C8.775 20.3096 9.08272 22.6919 9.60882 24.8162H4.27831ZM5.77721 26.8015H10.1945C10.7702 28.489 11.4949 29.9184 12.3287 31.0401C9.80735 30.2261 7.54412 28.7669 5.77721 26.8015ZM16.875 31.7647C15.2173 31.7647 13.5397 29.9283 12.3386 26.8015H21.4114C20.2103 29.9283 18.5327 31.7647 16.875 31.7647ZM21.4213 31.0401C22.2551 29.9283 22.9798 28.489 23.5555 26.8015H27.9728C26.2059 28.7669 23.9426 30.2261 21.4213 31.0401ZM29.4717 24.8162H24.1412C24.6772 22.6919 24.9849 20.3096 25.0445 17.8676H31.7349C31.5662 20.3393 30.7919 22.7217 29.4717 24.8162ZM25.0445 15.8824C24.975 13.4404 24.6673 11.0581 24.1412 8.93382H29.4717C30.7919 11.0283 31.5761 13.4107 31.7349 15.8824H25.0445Z" fill="#0063AE"/>
</svg>
