<svg width="38" height="27" viewBox="0 0 38 27" fill="none" xmlns="http://www.w3.org/2000/svg">
<path d="M35.4923 19.8573V3.68182C35.4923 2.70534 35.0913 1.76885 34.3775 1.07838C33.6638 0.387905 32.6957 0 31.6863 0H6.31365C5.30427 0 4.33622 0.387905 3.62247 1.07838C2.90873 1.76885 2.50775 2.70534 2.50775 3.68182V19.8573C1.66871 20.1518 0.963367 20.7222 0.515015 21.4688C0.0666623 22.2155 -0.0961732 23.0908 0.0549735 23.9418C0.20612 24.7928 0.661633 25.5653 1.34188 26.1243C2.02214 26.6833 2.88385 26.9933 3.77638 27H34.2236C35.1162 26.9933 35.9779 26.6833 36.6581 26.1243C37.3384 25.5653 37.7939 24.7928 37.945 23.9418C38.0962 23.0908 37.9333 22.2155 37.485 21.4688C37.0366 20.7222 36.3313 20.1518 35.4923 19.8573ZM6.31365 2.45455H31.6863C32.0228 2.45455 32.3455 2.58385 32.5834 2.81401C32.8213 3.04416 32.955 3.35633 32.955 3.68182V19.6364H5.04502V3.68182C5.04502 3.35633 5.17868 3.04416 5.41659 2.81401C5.65451 2.58385 5.97719 2.45455 6.31365 2.45455ZM34.2236 24.5455H3.77638C3.43992 24.5455 3.11724 24.4162 2.87932 24.186C2.64141 23.9558 2.50775 23.6437 2.50775 23.3182C2.50775 22.9927 2.64141 22.6805 2.87932 22.4504C3.11724 22.2202 3.43992 22.0909 3.77638 22.0909H34.2236C34.5601 22.0909 34.8828 22.2202 35.1207 22.4504C35.3586 22.6805 35.4923 22.9927 35.4923 23.3182C35.4923 23.6437 35.3586 23.9558 35.1207 24.186C34.8828 24.4162 34.5601 24.5455 34.2236 24.5455Z" fill="#0063AE"/>
</svg>
