<svg width="31" height="33" viewBox="0 0 31 33" fill="none" xmlns="http://www.w3.org/2000/svg">
<path d="M10.3333 33C9.99076 33 9.66222 32.8663 9.41999 32.6283C9.17775 32.3902 9.04167 32.0674 9.04167 31.7308V25.3846H6.45833C4.74611 25.3826 3.1046 24.7133 1.89387 23.5236C0.683139 22.3339 0.00205098 20.7209 0 19.0385V6.34615C0.00205098 4.66367 0.683139 3.05067 1.89387 1.86097C3.1046 0.671273 4.74611 0.00201536 6.45833 0H24.5417C26.2539 0.00201536 27.8954 0.671273 29.1061 1.86097C30.3169 3.05067 30.9979 4.66367 31 6.34615V19.0385C30.9979 20.7209 30.3169 22.3339 29.1061 23.5236C27.8954 24.7133 26.2539 25.3826 24.5417 25.3846H19.8529L11.1729 32.6941C10.9395 32.8919 10.6415 33.0005 10.3333 33ZM6.45833 2.53846C5.43062 2.53846 4.445 2.93963 3.71829 3.65371C2.99159 4.36779 2.58333 5.33629 2.58333 6.34615V19.0385C2.58333 20.0483 2.99159 21.0168 3.71829 21.7309C4.445 22.445 5.43062 22.8462 6.45833 22.8462H10.3333C10.6759 22.8462 11.0044 22.9799 11.2467 23.2179C11.4889 23.4559 11.625 23.7788 11.625 24.1154V28.9715L18.5354 23.152C18.7689 22.9544 19.0669 22.8458 19.375 22.8462H24.5417C25.5694 22.8462 26.555 22.445 27.2817 21.7309C28.0084 21.0168 28.4167 20.0483 28.4167 19.0385V6.34615C28.4167 5.33629 28.0084 4.36779 27.2817 3.65371C26.555 2.93963 25.5694 2.53846 24.5417 2.53846H6.45833Z" fill="#0063AE"/>
<path d="M7.5 15C8.88071 15 10 13.8807 10 12.5C10 11.1193 8.88071 10 7.5 10C6.11929 10 5 11.1193 5 12.5C5 13.8807 6.11929 15 7.5 15Z" fill="#0063AE"/>
<path d="M15.5 15C16.8807 15 18 13.8807 18 12.5C18 11.1193 16.8807 10 15.5 10C14.1193 10 13 11.1193 13 12.5C13 13.8807 14.1193 15 15.5 15Z" fill="#0063AE"/>
<path d="M23.5 15C24.8807 15 26 13.8807 26 12.5C26 11.1193 24.8807 10 23.5 10C22.1193 10 21 11.1193 21 12.5C21 13.8807 22.1193 15 23.5 15Z" fill="#0063AE"/>
</svg>
