<svg width="28" height="27" viewBox="0 0 28 27" fill="none" xmlns="http://www.w3.org/2000/svg">
<path d="M24.7992 3.32991C26.8257 5.89249 27.9732 9.1326 27.9732 12.5149C27.9732 20.502 21.6988 27 13.9866 27C6.27436 27 0 20.502 0 12.5149C0 8.59027 1.49094 4.91572 4.19812 2.16832C4.83229 1.52476 5.85015 1.53553 6.47156 2.1923C7.09298 2.84907 7.08258 3.9031 6.44841 4.54677C4.3635 6.66259 3.21531 9.49246 3.21531 12.5149C3.21531 18.6659 8.04728 23.6701 13.9866 23.6701C19.9259 23.6701 24.74 18.6659 24.74 12.5149C24.74 10.0993 23.9988 7.77811 22.6055 5.8794V7.2148C22.6055 8.1343 21.8857 8.87975 20.9978 8.87975C20.1099 8.87975 19.3901 8.1343 19.3901 7.2148V1.66562C19.3901 1.6654 19.3901 1.66518 19.3901 1.66518C19.3901 0.745455 20.1456 0 21.0335 0H26.3923C27.2802 0 28 0.745455 28 1.66495C28 2.58445 27.2802 3.32991 26.3923 3.32991H24.7992Z" fill="#0063AE"/>
</svg>
