<svg width="31" height="37" viewBox="0 0 31 37" fill="none" xmlns="http://www.w3.org/2000/svg">
<path d="M29.6142 5.85031L15.7834 0.107886C15.4369 -0.0359268 15.0474 -0.0359973 14.701 0.107886L0.870146 5.85031C0.343373 6.06906 0 6.58335 0 7.15373V14.1344C0 23.7464 5.8096 32.3926 14.7089 36.025C15.0507 36.1645 15.4336 36.1645 15.7755 36.025C24.6746 32.3927 30.4844 23.7465 30.4844 14.1344V7.15373C30.4844 6.58335 30.1411 6.06906 29.6142 5.85031ZM27.6617 14.1344C27.6617 22.3056 22.8633 29.8277 15.2422 33.1853C7.82475 29.9174 2.82263 22.527 2.82263 14.1344V8.09592L15.2422 2.9394L27.6617 8.09592V14.1344ZM13.6823 18.8916L19.7484 12.8255C20.2995 12.2744 21.1931 12.2743 21.7443 12.8255C22.2954 13.3767 22.2954 14.2703 21.7442 14.8214L14.6802 21.8854C14.1289 22.4366 13.2354 22.4364 12.6843 21.8854L8.74012 17.9412C8.18894 17.39 8.18894 16.4964 8.74012 15.9453C9.29131 15.3942 10.1849 15.3941 10.736 15.9453L13.6823 18.8916Z" fill="#0063AE"/>
</svg>
