<svg width="105" height="82" viewBox="0 0 105 82" fill="none" xmlns="http://www.w3.org/2000/svg">
<path d="M34.3015 48.1616H29.6975V66.1599H34.3015V48.1616Z" fill="#9FA7AD"/>
<path d="M23.3678 53.319C23.1826 53.2241 21.7024 52.358 19.5003 52.358C16.518 52.358 14.4545 54.4023 14.4545 57.1586C14.4545 59.833 16.432 61.9636 19.5003 61.9636C21.6645 61.9636 23.1695 61.1162 23.3678 61.0083V65.8391C22.7961 65.9988 21.2255 66.4793 19.1693 66.4793C13.9936 66.4793 9.45386 62.9576 9.45386 57.1586C9.45386 51.784 13.5664 47.8423 19.1693 47.8423C21.3364 47.8423 22.9347 48.3616 23.3678 48.4882V53.319Z" fill="#9FA7AD"/>
<path d="M70.789 53.2858C70.6037 53.1909 69.1235 52.3248 66.9215 52.3248C63.9392 52.3248 61.8756 54.3691 61.8756 57.1254C61.8756 59.7998 63.8531 61.9303 66.9215 61.9303C69.0856 61.9303 70.5906 61.083 70.789 60.9751V65.8059C70.2173 65.9656 68.6467 66.4461 66.5904 66.4461C61.4148 66.4461 56.875 62.9244 56.875 57.1254C56.875 51.7508 60.9875 47.8091 66.5904 47.8091C68.7575 47.8091 70.3558 48.3284 70.789 48.455V53.2858Z" fill="#9FA7AD"/>
<path d="M85.9082 52.4257C83.1767 52.4257 81.1482 54.5461 81.1482 57.1586C81.1482 59.7769 83.1767 61.8959 85.9082 61.8959C88.6367 61.8959 90.6711 59.7769 90.6711 57.1586C90.6711 54.5461 88.6367 52.4257 85.9082 52.4257ZM95.5492 57.1586C95.5492 62.3074 91.5198 66.4793 85.9082 66.4793C80.2965 66.4793 76.2729 62.3074 76.2729 57.1586C76.2729 52.0185 80.2965 47.8423 85.9082 47.8423C91.5198 47.8423 95.5492 52.0185 95.5492 57.1586Z" fill="#9FA7AD"/>
<path d="M51.7611 52.2529C51.6926 52.2314 49.7545 51.7034 48.162 51.7034C46.3172 51.7034 45.3138 52.3134 45.3138 53.178C45.3138 54.2742 46.6672 54.6568 47.4241 54.8928L48.6943 55.2913C51.6824 56.2292 53.0445 58.2476 53.0445 60.44C53.0445 64.9615 49.0136 66.4807 45.4903 66.4807C43.0418 66.4807 40.7478 66.0361 40.5218 65.9887V61.8469C40.9272 61.9476 42.858 62.5159 44.8691 62.5159C47.1601 62.5159 48.213 61.8556 48.213 60.8356C48.213 59.9235 47.3016 59.397 46.1597 59.0431C45.8811 58.9511 45.4626 58.8216 45.1768 58.7295C42.613 57.9296 40.4751 56.4436 40.4751 53.4642C40.4751 50.0979 43.0301 47.8379 47.2738 47.8379C49.5153 47.8379 51.6241 48.3745 51.7611 48.4105V52.2529Z" fill="#9FA7AD"/>
<path d="M4.57187 28.8194C4.57187 27.5793 3.54521 26.5737 2.28667 26.5737C1.02812 26.5737 0 27.5793 0 28.8194V33.5437C0 34.791 1.02812 35.798 2.28667 35.798C3.54521 35.798 4.57187 34.791 4.57187 33.5437V28.8194Z" fill="#9FA7AD"/>
<path d="M17.1271 22.6186C17.1271 21.3786 16.1004 20.3701 14.8418 20.3701C13.5818 20.3701 12.5552 21.3786 12.5552 22.6186V33.5448C12.5552 34.792 13.5818 35.7976 14.8418 35.7976C16.1004 35.7976 17.1271 34.792 17.1271 33.5448V22.6186Z" fill="#9FA7AD"/>
<path d="M29.6825 14.1343C29.6825 12.8942 28.6558 11.8872 27.3973 11.8872C26.1373 11.8872 25.1106 12.8942 25.1106 14.1343V38.0337C25.1106 39.281 26.1373 40.288 27.3973 40.288C28.6558 40.288 29.6825 39.281 29.6825 38.0337V14.1343Z" fill="#9FA7AD"/>
<path d="M42.2379 22.6186C42.2379 21.3786 41.2112 20.3701 39.9527 20.3701C38.6927 20.3701 37.666 21.3786 37.666 22.6186V33.5448C37.666 34.792 38.6927 35.7976 39.9527 35.7976C41.2112 35.7976 42.2379 34.792 42.2379 33.5448V22.6186Z" fill="#9FA7AD"/>
<path d="M54.779 28.8194C54.779 27.5793 53.7596 26.5737 52.5069 26.5737C51.2483 26.5737 50.2217 27.5793 50.2217 28.8194V33.5437C50.2217 34.791 51.2483 35.798 52.5069 35.798C53.7596 35.798 54.779 34.791 54.779 33.5437V28.8194Z" fill="#9FA7AD"/>
<path d="M54.7848 28.8194C54.7848 27.5793 53.7581 26.5737 52.4996 26.5737C51.241 26.5737 50.2129 27.5793 50.2129 28.8194V33.5437C50.2129 34.791 51.241 35.798 52.4996 35.798C53.7581 35.798 54.7848 34.791 54.7848 33.5437V28.8194Z" fill="#9FA7AD"/>
<path d="M67.3399 22.6186C67.3399 21.3786 66.3133 20.3701 65.0547 20.3701C63.7947 20.3701 62.7681 21.3786 62.7681 22.6186V33.5448C62.7681 34.792 63.7947 35.7976 65.0547 35.7976C66.3133 35.7976 67.3399 34.792 67.3399 33.5448V22.6186Z" fill="#9FA7AD"/>
<path d="M79.8954 14.1343C79.8954 12.8942 78.8687 11.8872 77.6102 11.8872C76.3502 11.8872 75.3235 12.8942 75.3235 14.1343V38.0337C75.3235 39.281 76.3502 40.288 77.6102 40.288C78.8687 40.288 79.8954 39.281 79.8954 38.0337V14.1343Z" fill="#9FA7AD"/>
<path d="M92.4508 22.6186C92.4508 21.3786 91.4241 20.3701 90.1656 20.3701C88.9056 20.3701 87.8789 21.3786 87.8789 22.6186V33.5448C87.8789 34.792 88.9056 35.7976 90.1656 35.7976C91.4241 35.7976 92.4508 34.792 92.4508 33.5448V22.6186Z" fill="#9FA7AD"/>
<path d="M104.992 28.8194C104.992 27.5793 103.972 26.5737 102.72 26.5737C101.461 26.5737 100.435 27.5793 100.435 28.8194V33.5437C100.435 34.791 101.461 35.798 102.72 35.798C103.972 35.798 104.992 34.791 104.992 33.5437V28.8194Z" fill="#9FA7AD"/>
<path d="M102.366 63.7896V64.0715H101.552V66.1589H101.218V64.0715H100.4V63.7896H102.366Z" fill="#9FA7AD"/>
<path d="M102.536 63.7896H103.06L103.779 65.7331H103.791L104.486 63.7896H105V66.1589H104.657V64.2168H104.645L103.916 66.1589H103.6L102.888 64.2168H102.872V66.1589H102.536V63.7896Z" fill="#9FA7AD"/>
</svg>
