<svg width="196" height="83" viewBox="0 0 196 83" fill="none" xmlns="http://www.w3.org/2000/svg">
<path d="M40.0298 46.5463C38.6481 49.7401 36.2005 52.3621 33.1002 53.9697C29.9998 55.5774 26.4366 56.0724 23.0119 55.371C19.5871 54.6697 16.5106 52.815 14.3015 50.12C12.0924 47.425 10.8861 44.0547 10.8861 40.578C10.8861 37.1012 12.0924 33.7309 14.3015 31.0359C16.5106 28.3409 19.5871 26.4862 23.0119 25.7849C26.4366 25.0835 29.9998 25.5785 33.1002 27.1862C36.2005 28.7938 38.6481 31.4158 40.0298 34.6096L42.8489 32.9856C41.1062 29.1759 38.1043 26.0742 34.3425 24.1965C30.5807 22.3188 26.2857 21.7783 22.172 22.6648C18.0583 23.5513 14.3738 25.8114 11.7314 29.0693C9.089 32.3271 7.64795 36.3862 7.64795 40.5715C7.64795 44.7567 9.089 48.8158 11.7314 52.0737C14.3738 55.3315 18.0583 57.5916 22.172 58.4781C26.2857 59.3646 30.5807 58.8241 34.3425 56.9464C38.1043 55.0687 41.1062 51.967 42.8489 48.1573L40.0298 46.5463Z" fill="#9FA7AD"/>
<path d="M48.874 51.6213L46.5498 50.2864C44.7036 54.128 41.8024 57.3721 38.1811 59.6443C34.5598 61.9165 30.3661 63.1241 26.0841 63.1277C13.576 63.1277 3.40362 53.0115 3.40362 40.5779C3.40362 28.1442 13.576 18.0281 26.0808 18.0281C30.3634 18.0311 34.5578 19.2384 38.1797 21.5106C41.8016 23.7828 44.7033 27.0273 46.5498 30.8694L48.874 29.5344L49.364 29.2567C47.2299 24.9246 43.917 21.2742 39.8014 18.7202C35.6857 16.1661 30.9323 14.8106 26.0808 14.8076C11.7892 14.8076 0.163086 26.3675 0.163086 40.5779C0.163086 54.7882 11.7892 66.3481 26.0808 66.3481C30.9317 66.3435 35.6841 64.9867 39.7985 62.4318C43.913 59.8769 47.2246 56.2262 49.3575 51.8942L48.874 51.6213Z" fill="#9FA7AD"/>
<path d="M38.8555 40.5777L51.179 47.652V33.5034L38.8555 40.5777Z" fill="#9FA7AD"/>
<path d="M74.4587 26.5591C75.221 26.0534 76.1732 25.8006 77.3154 25.8006C78.5666 25.8006 79.5879 26.1011 80.3796 26.702C81.1712 27.3029 81.7341 28.1468 82.0684 29.2339L85.4984 28.2887C84.9808 26.6274 83.9398 25.1755 82.529 24.1474C81.1244 23.1275 79.3881 22.6181 77.3203 22.6191C75.5204 22.6191 73.9676 23.0084 72.6621 23.7868C71.3602 24.5639 70.3133 25.7002 69.6486 27.0576C68.9441 28.4576 68.5918 30.0865 68.5918 31.9444C68.5918 33.8023 68.9441 35.4306 69.6486 36.8295C70.3133 38.1869 71.3602 39.3232 72.6621 40.1003C73.9687 40.8798 75.5215 41.2696 77.3203 41.2696C79.3892 41.2696 81.1255 40.7597 82.529 39.7398C83.9398 38.7116 84.9808 37.2598 85.4984 35.5985L82.0684 34.6549C81.7876 35.6524 81.1964 36.5358 80.3796 37.1787C79.5869 37.7828 78.5655 38.0849 77.3154 38.0849C76.1732 38.0849 75.221 37.8326 74.4587 37.3281C73.6816 36.8038 73.0821 36.0583 72.7388 35.1892C72.3344 34.1546 72.139 33.0509 72.1639 31.9411C72.139 30.8314 72.3344 29.7277 72.7388 28.693C73.083 27.8258 73.6824 27.082 74.4587 26.5591Z" fill="#9FA7AD"/>
<path d="M97.9052 28.0031C96.8137 27.4096 95.5902 27.0975 94.3462 27.0952C93.1022 27.093 91.8775 27.4006 90.7838 27.9901C89.7596 28.5811 88.9214 29.4444 88.3632 30.483C87.7617 31.6228 87.4605 32.8956 87.4878 34.1825C87.4626 35.4586 87.7567 36.721 88.3436 37.8561C88.892 38.8965 89.7212 39.7643 90.7381 40.362C91.8345 40.9561 93.0632 41.2675 94.3118 41.2675C95.5605 41.2675 96.7892 40.9561 97.8856 40.362C98.9077 39.7682 99.7436 38.9034 100.3 37.8642C100.896 36.7273 101.194 35.4595 101.169 34.1776C101.195 32.9027 100.901 31.6414 100.311 30.5089C99.7596 29.4671 98.9263 28.5992 97.9052 28.0031ZM96.7618 37.01C96.2239 37.744 95.4073 38.1111 94.3118 38.1111C93.2534 38.1111 92.4509 37.7565 91.9043 37.0473C91.3577 36.3382 91.0855 35.3832 91.0876 34.1825C91.074 33.4831 91.1903 32.7872 91.4307 32.1297C91.6355 31.5745 92.0037 31.0935 92.4874 30.7493C92.9633 30.418 93.5719 30.2523 94.3135 30.2523C95.3893 30.2523 96.2 30.6091 96.7455 31.3226C97.291 32.0361 97.5633 32.9894 97.5622 34.1825C97.5698 35.3345 97.3047 36.2754 96.7667 37.0051L96.7618 37.01Z" fill="#9FA7AD"/>
<path d="M108.778 36.7677L105.577 27.4668H102.175L107.078 40.896H110.479L115.38 27.4668H111.98L108.778 36.7677Z" fill="#9FA7AD"/>
<path d="M129.523 35.1256C129.666 33.5016 129.499 32.0887 129.024 30.8869C128.599 29.7496 127.83 28.7717 126.822 28.0887C125.831 27.4282 124.627 27.098 123.209 27.098C121.969 27.0737 120.745 27.3853 119.67 27.9993C118.643 28.6004 117.807 29.476 117.257 30.5263C116.672 31.609 116.381 32.8855 116.382 34.3558C116.358 35.6042 116.666 36.8367 117.275 37.9287C117.858 38.9559 118.715 39.8033 119.751 40.3778C120.871 40.9871 122.132 41.2939 123.408 41.2677C124.679 41.2753 125.926 40.9214 127.002 40.2478C128.091 39.5754 128.935 38.5729 129.409 37.3879L126.009 36.4135C125.783 36.9323 125.403 37.3703 124.921 37.6689C124.402 37.9707 123.808 38.1215 123.207 38.1041C122.149 38.1041 121.346 37.762 120.8 37.0777C120.376 36.507 120.117 35.832 120.05 35.1256H129.523ZM123.359 30.0213C124.351 30.0213 125.066 30.3223 125.504 30.9242C125.791 31.3189 125.982 31.8824 126.08 32.6084H120.135C120.239 32.0532 120.467 31.5283 120.801 31.072C121.347 30.3715 122.2 30.0213 123.359 30.0213Z" fill="#9FA7AD"/>
<path d="M77.0134 47.5612C76.374 46.9833 75.5675 46.6207 74.7087 46.5251C74.4037 46.4799 74.096 46.4544 73.7875 46.4487C73.4609 46.4487 73.2306 46.4487 73.0885 46.4487H69.4167V58.7216H73.095C73.2257 58.7216 73.456 58.7216 73.7843 58.7086C74.0957 58.7015 74.4065 58.6777 74.7153 58.6371C75.5733 58.5424 76.3796 58.1816 77.0199 57.6059C77.6495 57.0159 78.1211 56.2791 78.3919 55.4621C78.9974 53.5947 78.9974 51.5853 78.3919 49.7179C78.1205 48.896 77.6466 48.1546 77.0134 47.5612ZM77.4642 54.9684C77.279 55.6399 76.9268 56.2543 76.4401 56.7549C75.933 57.2418 75.2853 57.5587 74.5879 57.6611C74.3554 57.6993 74.1209 57.7237 73.8855 57.7342C73.6111 57.7488 73.3449 57.7553 73.0885 57.7553H70.4474V47.4069H73.0885C73.3286 47.4069 73.5899 47.4069 73.8725 47.428C74.1122 47.4382 74.3511 47.4626 74.5879 47.5011C75.2855 47.5974 75.9342 47.9119 76.4401 48.3992C76.9261 48.9009 77.2791 49.5147 77.4674 50.1856C77.6935 50.9656 77.8035 51.7743 77.7941 52.586C77.7998 53.3928 77.6887 54.1963 77.4642 54.9717V54.9684Z" fill="#9FA7AD"/>
<path d="M87.6856 51.1341C87.4615 50.5417 87.0316 50.0486 86.4736 49.7439C85.8128 49.3977 85.0723 49.2297 84.3258 49.2567C83.3262 49.2567 82.5063 49.4808 81.866 49.9291C81.2155 50.3929 80.7606 51.0795 80.5887 51.8568L81.5998 52.1378C81.7827 51.4784 82.1012 50.9912 82.5553 50.6761C83.0703 50.3424 83.6772 50.1766 84.2915 50.2019C85.2911 50.2019 85.9896 50.445 86.3871 50.9311C86.7611 51.3891 86.9473 52.0761 86.9489 52.9855C86.6762 53.0196 86.3642 53.0586 86.0016 53.1008C85.468 53.1625 84.9067 53.2351 84.3176 53.3184C83.728 53.3997 83.1743 53.4987 82.6712 53.6124C82.242 53.7138 81.8303 53.878 81.4495 54.0996C81.0896 54.3075 80.7866 54.6003 80.5675 54.9522C80.3363 55.3502 80.223 55.8052 80.2408 56.2645C80.2369 56.7346 80.3581 57.1974 80.592 57.6059C80.8402 58.0324 81.208 58.3778 81.6504 58.5998C82.2035 58.8678 82.8142 58.9966 83.4291 58.975C84.3036 58.9965 85.1652 58.7621 85.9069 58.301C86.3733 58.0018 86.7609 57.5958 87.0371 57.1171V58.7184H87.9371V52.9806C87.9374 52.6519 87.9205 52.3234 87.8865 51.9965C87.8599 51.7012 87.7923 51.411 87.6856 51.1341ZM86.846 55.3566C86.7794 55.8736 86.5865 56.3665 86.2842 56.7923C85.9883 57.2014 85.5911 57.5276 85.131 57.7391C84.6117 57.9727 84.0463 58.0876 83.4765 58.0753C83.0196 58.0936 82.5655 57.9963 82.1567 57.7927C81.8584 57.6394 81.6149 57.3983 81.4593 57.1025C81.3239 56.8446 81.2517 56.5586 81.2486 56.2677C81.2352 55.9372 81.3297 55.6113 81.5181 55.3388C81.6954 55.0968 81.9277 54.8998 82.1959 54.7638C82.4557 54.6269 82.7295 54.518 83.0126 54.439C83.4921 54.3163 83.9786 54.2225 84.4695 54.1581C85.0069 54.0834 85.5345 54.0217 86.0506 53.9697C86.3773 53.9372 86.6811 53.9064 86.9538 53.8755C86.9538 54.0087 86.9538 54.1646 86.9538 54.3448C86.9464 54.6845 86.9103 55.0229 86.846 55.3566Z" fill="#9FA7AD"/>
<path d="M92.2033 46.9556H91.2086V49.5102H89.1343V50.405H91.2086V55.5191C91.2086 55.9446 91.2173 56.3236 91.2348 56.6559C91.2555 56.9943 91.3426 57.3253 91.4912 57.6304C91.6639 58.0111 91.9616 58.3221 92.3356 58.5122C92.735 58.7098 93.172 58.8205 93.6178 58.837C94.1068 58.8625 94.5971 58.821 95.0747 58.7136V57.8269C94.5124 57.9339 93.9362 57.947 93.3695 57.8659C93.1609 57.8338 92.9631 57.7524 92.7925 57.6287C92.622 57.5049 92.4838 57.3423 92.3895 57.1545C92.2799 56.9387 92.2202 56.7012 92.2148 56.4594C92.205 56.2061 92.2017 55.8878 92.2017 55.5013V50.4066H95.0731V49.5102H92.2033V46.9556Z" fill="#9FA7AD"/>
<path d="M103.784 51.1341C103.559 50.5416 103.129 50.0485 102.57 49.7439C101.91 49.3976 101.17 49.2297 100.424 49.2567C99.4222 49.2567 98.6023 49.4808 97.9642 49.9291C97.3162 50.394 96.8636 51.0805 96.6935 51.8568L97.7045 52.1378C97.8874 51.4784 98.2059 50.9912 98.66 50.6761C99.175 50.3422 99.7819 50.1764 100.396 50.2019C101.396 50.2019 102.094 50.445 102.492 50.9311C102.866 51.3891 103.05 52.0761 103.052 52.9855C102.781 53.0196 102.467 53.0586 102.106 53.1008C101.573 53.1625 101.011 53.2351 100.421 53.3185C99.8327 53.3997 99.2774 53.4987 98.776 53.6124C98.3467 53.7138 97.935 53.878 97.5542 54.0996C97.194 54.3071 96.8909 54.6 96.6722 54.9522C96.441 55.3502 96.3278 55.8052 96.3456 56.2645C96.3422 56.7347 96.4639 57.1975 96.6984 57.6059C96.9466 58.0324 97.3144 58.3778 97.7568 58.5998C98.3097 58.8683 98.9206 58.9971 99.5355 58.975C100.409 58.9964 101.27 58.7621 102.012 58.301C102.479 58.0024 102.867 57.5963 103.143 57.1171V58.7184H104.043V52.9807C104.044 52.6519 104.027 52.3234 103.993 51.9965C103.963 51.7009 103.893 51.4108 103.784 51.1341ZM102.944 55.3566C102.878 55.8736 102.685 56.3665 102.382 56.7923C102.086 57.2011 101.689 57.5272 101.229 57.7391C100.71 57.9727 100.145 58.0876 99.5747 58.0753C99.1186 58.0968 98.6645 58.0029 98.2549 57.8024C97.9568 57.6483 97.713 57.4075 97.5559 57.1122C97.4209 56.8542 97.3493 56.5682 97.3468 56.2775C97.3334 55.947 97.4279 55.6211 97.6163 55.3485C97.7933 55.1062 98.0256 54.9091 98.2941 54.7736C98.5539 54.6367 98.8277 54.5278 99.1108 54.4488C99.5903 54.3259 100.077 54.232 100.568 54.1678C101.105 54.0931 101.631 54.0314 102.149 53.9794C102.475 53.947 102.779 53.9161 103.05 53.8852C103.05 54.0184 103.05 54.1743 103.05 54.3546C103.044 54.691 103.008 55.0262 102.944 55.3566Z" fill="#9FA7AD"/>
<path d="M116.765 47.173C116.301 46.8206 115.754 46.593 115.176 46.5121C115.03 46.485 114.882 46.4665 114.733 46.4568C114.593 46.4568 114.464 46.4438 114.345 46.4438H109.69V58.7167H110.67V53.9355H114.34C114.459 53.9355 114.588 53.9355 114.729 53.9177C114.869 53.8998 115.016 53.8901 115.171 53.8673C115.738 53.7929 116.277 53.5745 116.735 53.2332C117.192 52.8919 117.554 52.4391 117.784 51.9185C118.016 51.3735 118.136 50.7879 118.136 50.1962C118.136 49.6045 118.016 49.0189 117.784 48.4739C117.559 47.9628 117.208 47.5158 116.765 47.173ZM116.873 51.3874C116.729 51.7597 116.5 52.0933 116.203 52.3618C115.889 52.6401 115.504 52.8272 115.089 52.9027C114.952 52.9254 114.817 52.9416 114.683 52.953C114.549 52.9644 114.43 52.9709 114.327 52.9709H110.675V47.3988H114.333C114.436 47.3988 114.555 47.3988 114.689 47.415C114.826 47.4273 114.962 47.4474 115.096 47.4751C115.51 47.5506 115.895 47.7377 116.21 48.0159C116.506 48.2844 116.736 48.6181 116.88 48.9903C117.029 49.3718 117.104 49.7779 117.102 50.1873C117.101 50.598 117.024 51.005 116.873 51.3874Z" fill="#9FA7AD"/>
<path d="M123.268 49.4303C122.926 49.4522 122.588 49.5211 122.265 49.6349C121.943 49.746 121.648 49.9218 121.398 50.1514C121.212 50.3132 121.047 50.4976 120.908 50.7003C120.847 50.788 120.793 50.8806 120.744 50.9731V49.5115H119.844V58.7166H120.837V54.1563C120.837 53.7827 120.859 53.3978 120.898 53.0016C120.937 52.612 121.029 52.2296 121.172 51.8647C121.32 51.4974 121.555 51.1713 121.858 50.9147C122.183 50.6293 122.585 50.4457 123.015 50.3869C123.403 50.3344 123.798 50.3514 124.181 50.4372V49.5099C123.883 49.4351 123.574 49.4083 123.268 49.4303Z" fill="#9FA7AD"/>
<path d="M131.784 49.8739C131.074 49.472 130.271 49.2596 129.454 49.2573C128.637 49.2551 127.833 49.463 127.121 49.861C126.471 50.2721 125.957 50.8632 125.641 51.5613C125.284 52.359 125.108 53.2251 125.127 54.0981C125.11 54.9679 125.283 55.8311 125.633 56.6283C125.945 57.3318 126.456 57.9302 127.103 58.3514C127.805 58.7827 128.619 58.999 129.443 58.9734C130.264 58.9973 131.074 58.7841 131.776 58.3595C132.424 57.9456 132.936 57.3507 133.246 56.6494C133.599 55.8456 133.772 54.975 133.752 54.0981C133.77 53.2339 133.599 52.3761 133.251 51.5841C132.94 50.8843 132.43 50.29 131.784 49.8739ZM131.885 56.9271C131.341 57.6547 130.524 58.0185 129.435 58.0185C128.367 58.0185 127.557 57.6607 127.005 56.945C126.453 56.2294 126.177 55.2804 126.178 54.0981C126.165 53.4097 126.285 52.7251 126.534 52.0826C126.748 51.5292 127.122 51.0514 127.609 50.7103C128.151 50.3601 128.789 50.1859 129.435 50.2117C130.524 50.2117 131.341 50.5636 131.885 51.2674C132.43 51.9711 132.702 52.9147 132.702 54.0981C132.698 55.2566 132.425 56.1996 131.885 56.9271Z" fill="#9FA7AD"/>
<path d="M137.677 46.9556H136.682V49.5102H134.608V50.405H136.682V55.5191C136.682 55.9446 136.69 56.3236 136.707 56.656C136.728 56.9944 136.816 57.3254 136.965 57.6304C137.137 58.0114 137.435 58.3225 137.809 58.5122C138.208 58.7098 138.645 58.8205 139.09 58.837C139.579 58.8625 140.07 58.821 140.548 58.7136V57.8269C139.986 57.9339 139.409 57.9471 138.842 57.8659C138.633 57.8339 138.435 57.7526 138.264 57.6288C138.094 57.505 137.956 57.3424 137.862 57.1545C137.751 56.9388 137.691 56.7013 137.685 56.4594C137.685 56.2061 137.674 55.8878 137.674 55.5013V50.4066H140.548V49.5102H137.677V46.9556Z" fill="#9FA7AD"/>
<path d="M150.054 54.3951C150.071 53.3124 149.912 52.3894 149.577 51.6261C149.283 50.9056 148.775 50.2915 148.121 49.8657C147.429 49.4448 146.629 49.2332 145.819 49.2566C145.017 49.237 144.225 49.4406 143.533 49.8445C142.88 50.248 142.362 50.8331 142.041 51.527C141.672 52.3431 141.492 53.231 141.514 54.1255C141.492 55.0111 141.674 55.8898 142.046 56.6947C142.372 57.3872 142.893 57.9706 143.546 58.374C144.241 58.7819 145.037 58.9873 145.844 58.9668C146.692 58.981 147.527 58.7557 148.251 58.3172C148.962 57.8776 149.524 57.236 149.863 56.4755L148.96 56.0922C148.677 56.6762 148.237 57.1705 147.688 57.5198C147.124 57.8598 146.474 58.0328 145.814 58.0183C144.781 58.0183 143.979 57.6773 143.41 56.9952C142.886 56.3667 142.606 55.4978 142.566 54.3967L150.054 54.3951ZM143.415 51.212C143.983 50.5288 144.791 50.1867 145.837 50.1856C146.849 50.1856 147.626 50.5153 148.168 51.1746C148.63 51.7349 148.903 52.5145 148.993 53.51H142.59C142.668 52.5502 142.943 51.7836 143.415 51.212Z" fill="#9FA7AD"/>
<path d="M153.921 50.7103C154.456 50.3599 155.088 50.1855 155.729 50.2117C156.339 50.2005 156.941 50.3646 157.46 50.6843C157.963 50.9996 158.35 51.467 158.566 52.0176L159.526 51.6685C159.275 50.9326 158.773 50.3071 158.107 49.8999C157.396 49.461 156.573 49.2354 155.737 49.2503C154.918 49.2238 154.108 49.4336 153.406 49.8544C152.764 50.267 152.258 50.8584 151.952 51.5548C151.612 52.3586 151.436 53.2218 151.435 54.094C151.433 54.9661 151.606 55.8299 151.944 56.6348C152.247 57.3338 152.749 57.9294 153.388 58.3482C154.022 58.7607 154.802 58.9669 155.729 58.9669C156.534 58.987 157.328 58.775 158.015 58.3563C158.683 57.9241 159.208 57.3062 159.524 56.5796L158.544 56.2548C158.316 56.7937 157.929 57.2511 157.434 57.567C156.919 57.8763 156.325 58.0329 155.724 58.0185C154.66 58.0185 153.858 57.6617 153.319 56.9482C152.78 56.2347 152.502 55.2901 152.483 54.1143C152.481 53.4214 152.606 52.734 152.852 52.0859C153.063 51.5318 153.435 51.0527 153.921 50.7103Z" fill="#9FA7AD"/>
<path d="M163.358 46.9556H162.363V49.5102H160.289V50.405H162.363V55.5191C162.363 55.9446 162.372 56.3236 162.388 56.656C162.409 56.9944 162.497 57.3254 162.646 57.6304C162.818 58.0114 163.116 58.3225 163.49 58.5122C163.889 58.7096 164.326 58.8203 164.771 58.837C165.261 58.8625 165.751 58.821 166.229 58.7136V57.8269C165.667 57.9339 165.09 57.9471 164.523 57.8659C164.314 57.8339 164.116 57.7526 163.946 57.6288C163.775 57.505 163.637 57.3424 163.543 57.1545C163.433 56.9388 163.372 56.7013 163.366 56.4594C163.358 56.2061 163.355 55.8878 163.355 55.5013V50.4066H166.226V49.5102H163.355L163.358 46.9556Z" fill="#9FA7AD"/>
<path d="M169.161 46.4014H168.175V47.6535H169.161V46.4014Z" fill="#9FA7AD"/>
<path d="M169.161 49.5117H168.175V58.7168H169.161V49.5117Z" fill="#9FA7AD"/>
<path d="M177.87 49.8739C177.16 49.472 176.357 49.2596 175.54 49.2573C174.723 49.2551 173.919 49.463 173.207 49.861C172.561 50.2734 172.05 50.8644 171.737 51.5613C171.38 52.359 171.204 53.2252 171.222 54.0981C171.205 54.968 171.378 55.8313 171.729 56.6283C172.041 57.3321 172.551 57.9307 173.199 58.3514C173.901 58.7829 174.715 58.9992 175.539 58.9734C176.36 58.997 177.169 58.7838 177.87 58.3595C178.518 57.9447 179.029 57.3501 179.34 56.6494C179.692 55.8453 179.864 54.9748 179.845 54.0981C179.863 53.2339 179.692 52.3761 179.343 51.5841C179.031 50.8828 178.519 50.2881 177.87 49.8739ZM177.973 56.9271C177.429 57.6547 176.612 58.0185 175.523 58.0185C174.453 58.0185 173.643 57.6607 173.093 56.945C172.543 56.2294 172.267 55.2804 172.265 54.0981C172.252 53.4097 172.372 52.7254 172.621 52.0826C172.834 51.5291 173.209 51.0513 173.697 50.7103C174.239 50.3598 174.877 50.1856 175.523 50.2117C176.612 50.2117 177.426 50.5636 177.965 51.2674C178.504 51.9711 178.776 52.9147 178.782 54.0981C178.785 55.2566 178.516 56.1996 177.976 56.9271H177.973Z" fill="#9FA7AD"/>
<path d="M189.359 52.3082C189.272 51.8879 189.126 51.4818 188.926 51.1015C188.738 50.7429 188.489 50.4197 188.189 50.1466C187.884 49.872 187.527 49.6596 187.139 49.5213C186.7 49.3674 186.237 49.292 185.772 49.2988C185.095 49.2882 184.426 49.448 183.827 49.7633C183.334 50.0324 182.921 50.4242 182.626 50.9001V49.51H181.726V58.715H182.721V53.7487C182.717 53.2754 182.776 52.8036 182.896 52.3455C183 51.9442 183.181 51.5664 183.428 51.2331C183.666 50.9198 183.978 50.6698 184.336 50.5055C184.747 50.3233 185.193 50.2346 185.643 50.2456C186.078 50.2346 186.509 50.3189 186.907 50.4925C187.262 50.6544 187.569 50.9037 187.799 51.2168C188.05 51.5655 188.231 51.9593 188.332 52.3764C188.454 52.8842 188.513 53.4052 188.506 53.9273V58.7166H189.501V53.6821C189.503 53.2204 189.455 52.7598 189.359 52.3082Z" fill="#9FA7AD"/>
<path d="M192.777 51.2834V49.5879H192.124V49.3638H193.681V49.5879H193.027V51.2834H192.777Z" fill="#9FA7AD"/>
<path d="M193.944 51.2834V49.3638H194.161L194.891 50.8936L195.616 49.3638H195.837V51.2834H195.61V49.8851L194.956 51.2834H194.827L194.174 49.8851V51.2834H193.944Z" fill="#9FA7AD"/>
</svg>
