<svg width="163" height="82" viewBox="0 0 163 82" fill="none" xmlns="http://www.w3.org/2000/svg">
<g clip-path="url(#clip0_380_2564)">
<path d="M52.3681 19.1732H3.57012V9.97424H52.3681V19.1732ZM55.8546 6.42236H0.0817871V22.7161H55.8546V6.42236Z" fill="#9FA7AD"/>
<path d="M3.5701 49.6567H0.0837402V33.3585H3.5701V39.7969H9.79913V33.3585H13.2855V49.6567H9.79913V42.9048H3.5701V49.6567Z" fill="#9FA7AD"/>
<path d="M18.5981 42.4628H22.7504C22.673 41.2646 22.1869 40.4295 20.8278 40.4295C19.8025 40.4295 18.9053 40.8734 18.5981 42.4628ZM21.2378 49.8667C17.7009 49.8667 15.2922 47.5984 15.2922 43.8723C15.2922 40.2474 17.6501 37.7453 20.777 37.7453C24.1857 37.7453 25.8773 40.0653 25.8773 43.5329V44.8367H18.5981C19.0092 46.634 20.3925 47.1027 21.777 47.1027C22.9813 47.1027 23.852 46.8431 24.9282 46.1642H25.0574V48.8495C24.1348 49.5284 22.8266 49.8667 21.2378 49.8667Z" fill="#9FA7AD"/>
<path d="M34.9529 42.8223L33.1583 49.6519H30.1084L26.6221 38.1869V38.0565H29.9548L31.8511 44.913L33.6456 38.0565H36.3629L38.1828 44.913L40.1056 38.0565H43.3102V38.1869L39.8238 49.6519H36.7728L34.9529 42.8223Z" fill="#9FA7AD"/>
<path d="M48.9201 49.8364C46.1523 49.8364 45.0242 48.7158 45.0242 46.0833V33.2808H48.4074V45.8473C48.4074 46.6555 48.7146 46.9421 49.3808 46.9421C49.6118 46.9421 49.9454 46.8645 50.1499 46.7858H50.2018V49.6274C49.92 49.7308 49.4328 49.8353 48.9201 49.8353" fill="#9FA7AD"/>
<path d="M54.4895 42.4628H58.6417C58.5644 41.2646 58.0782 40.4295 56.7192 40.4295C55.6949 40.4295 54.7967 40.8734 54.4895 42.4628ZM57.1291 49.8667C53.5923 49.8667 51.1836 47.5984 51.1836 43.8723C51.1836 40.2474 53.5415 37.7453 56.6684 37.7453C60.077 37.7453 61.7686 40.0653 61.7686 43.5329V44.8367H54.4895C54.8994 46.634 56.2839 47.1027 57.6672 47.1027C58.8727 47.1027 59.7433 46.8431 60.8206 46.1642H60.9488V48.8495C60.0262 49.5284 58.7191 49.8667 57.1291 49.8667Z" fill="#9FA7AD"/>
<path d="M75.7061 38.0569H78.2179V40.8197H75.7061V45.5383C75.7061 46.5555 76.0907 47.0254 77.1161 47.0254C77.3979 47.0254 77.7571 46.9984 78.1416 46.868H78.2179V49.5792C77.7825 49.7365 77.1161 49.9175 76.1426 49.9175C73.3988 49.9175 72.3225 48.6406 72.3225 45.6946V40.8197H67.9908V45.5383C67.9908 46.5555 68.3754 47.0254 69.3998 47.0254C69.6826 47.0254 70.0418 46.9984 70.4263 46.868H70.5026V49.5792C70.0672 49.7365 69.3998 49.9175 68.4273 49.9175C65.6836 49.9175 64.6073 48.6406 64.6073 45.6946V40.8197H62.8635V38.0569H64.6073V34.877H67.9908V38.0569H72.3225V34.877H75.7061V38.0569Z" fill="#9FA7AD"/>
<path d="M89.5854 41.2939C91.3557 41.2939 92.1999 40.2778 92.1999 38.8177C92.1999 37.3047 91.3557 36.2886 89.5854 36.2886H87.3809V41.2939H89.5854ZM95.7382 38.8177C95.7382 42.3639 93.4055 44.2916 89.8672 44.2916H87.3809V49.5835H83.8967V33.2853H89.8672C93.4055 33.2853 95.7382 35.2141 95.7382 38.812" fill="#9FA7AD"/>
<path d="M103.199 45.9699V44.9796C102.686 44.6941 102.021 44.5896 101.328 44.5896C100.226 44.5896 99.5601 45.0055 99.5601 45.944C99.5601 46.9095 100.226 47.3266 101.225 47.3266C102.173 47.3266 102.891 46.8309 103.199 45.9699ZM103.301 48.473C102.558 49.3858 101.457 49.8286 100.276 49.8286C98.0475 49.8286 96.2266 48.4483 96.2266 45.9957C96.2266 43.7286 98.0475 42.2168 100.661 42.2168C101.48 42.2168 102.328 42.3472 103.199 42.6068V42.4C103.199 41.1478 102.507 40.6016 100.688 40.6016C99.5336 40.6016 98.432 40.9388 97.4828 41.4873H97.3558V38.7233C98.2265 38.2029 99.7656 37.7589 101.276 37.7589C104.711 37.7589 106.582 39.427 106.582 42.3472V49.6195H103.301V48.473Z" fill="#9FA7AD"/>
<path d="M108.238 43.8117C108.238 40.0833 110.828 37.7375 114.211 37.7375C115.416 37.7375 116.543 37.9983 117.389 38.6232V41.5693H117.26C116.516 40.996 115.646 40.6566 114.647 40.6566C112.955 40.6566 111.673 41.8312 111.673 43.8117C111.673 45.7922 112.955 46.9398 114.647 46.9398C115.646 46.9398 116.516 46.6004 117.26 46.026H117.389V48.972C116.543 49.5981 115.416 49.8589 114.211 49.8589C110.828 49.8589 108.238 47.54 108.238 43.8117" fill="#9FA7AD"/>
<path d="M122.913 44.3513V49.6162H119.531V33.318H122.913V42.5979L126.322 38.0096H130.166V38.14L126.066 43.406L130.166 49.4802V49.6106H126.296L122.913 44.3457" fill="#9FA7AD"/>
<path d="M137.764 45.9699V44.9796C137.252 44.6941 136.585 44.5896 135.893 44.5896C134.792 44.5896 134.125 45.0055 134.125 45.944C134.125 46.9095 134.792 47.3266 135.789 47.3266C136.74 47.3266 137.457 46.8309 137.764 45.9699ZM137.867 48.473C137.123 49.3858 136.02 49.8286 134.842 49.8286C132.612 49.8286 130.793 48.4483 130.793 45.9957C130.793 43.7286 132.612 42.2168 135.228 42.2168C136.048 42.2168 136.892 42.3472 137.764 42.6068V42.4C137.764 41.1478 137.072 40.6016 135.252 40.6016C134.1 40.6016 132.996 40.9388 132.048 41.4873H131.92V38.7233C132.792 38.2029 134.33 37.7589 135.841 37.7589C139.278 37.7589 141.148 39.427 141.148 42.3472V49.6195H137.867V48.473Z" fill="#9FA7AD"/>
<path d="M146.87 39.8552C147.484 38.5772 148.382 37.8477 149.638 37.8477C150.099 37.8477 150.56 37.9523 150.738 38.0568V41.3412H150.611C150.226 41.1838 149.766 41.0804 149.125 41.0804C148.074 41.0804 147.254 41.7065 146.971 42.9047V49.5791H143.589V37.9793H146.87V39.8564" fill="#9FA7AD"/>
<path d="M159.688 45.6999V41.9715C159.124 41.1375 158.382 40.7733 157.534 40.7733C156.049 40.7733 155.049 41.8692 155.049 43.8498C155.049 45.8303 156.049 46.8992 157.534 46.8992C158.382 46.8992 159.124 46.5339 159.688 45.6999ZM159.79 48.438C159.072 49.3766 157.944 49.897 156.407 49.897C153.484 49.897 151.614 47.187 151.614 43.8498C151.614 40.5126 153.484 37.7756 156.407 37.7756C157.893 37.7756 158.97 38.2454 159.688 39.1053V33.3447H163.072V49.6317H159.79V48.4335" fill="#9FA7AD"/>
<path d="M0.122314 54.9619H10.0157V56.9424H2.35202V61.9207H9.29749V63.8506H2.35202V69.2729H10.0157V71.2534H0.122314V54.9664" fill="#9FA7AD"/>
<path d="M18.1559 59.5481C20.6928 59.5481 22.1027 61.2431 22.1027 64.0306V71.2524H19.9757V64.0835C19.9757 62.5975 19.2321 61.5286 17.6178 61.5286C16.2853 61.5286 15.1572 62.3896 14.7727 63.6136V71.2524H12.6458V59.7875H14.7727V61.4555C15.439 60.3866 16.5671 59.5526 18.1559 59.5526" fill="#9FA7AD"/>
<path d="M27.792 59.7278H30.6879V61.579H27.792V67.7566C27.792 69.0593 28.4582 69.5033 29.6626 69.5033C29.9951 69.5033 30.3542 69.4516 30.6106 69.3471H30.6879V71.1972C30.3808 71.3276 29.9443 71.4321 29.3554 71.4321C26.7147 71.4321 25.665 70.2058 25.665 67.9657V61.579H23.717V59.7278H25.665V56.6794H27.792V59.7278Z" fill="#9FA7AD"/>
<path d="M34.2456 64.4037H39.8585C39.7823 62.7098 38.9613 61.4071 37.2189 61.4071C35.6046 61.4071 34.5527 62.6323 34.2456 64.4037ZM37.6034 71.4951C34.2964 71.4951 32.0413 69.2527 32.0413 65.6559C32.0413 62.0579 34.1428 59.5558 37.1935 59.5558C40.2949 59.5558 41.9092 61.8241 41.9092 65.186V66.1774H34.1682C34.3991 68.4974 35.8609 69.618 37.8851 69.618C39.1414 69.618 40.0375 69.3314 41.0374 68.5749H41.1148V70.479C40.1922 71.2085 38.9867 71.4951 37.6034 71.4951Z" fill="#9FA7AD"/>
<path d="M46.6218 61.5263C47.1091 60.3011 48.1864 59.5716 49.415 59.5716C49.9034 59.5716 50.3387 59.6492 50.5177 59.7537V61.8904H50.4415C50.1332 61.7353 49.6206 61.6566 49.1079 61.6566C47.9555 61.6566 46.9809 62.4378 46.6218 63.7417V71.2231H44.4949V59.7582H46.6218V61.5308" fill="#9FA7AD"/>
<path d="M57.318 69.5292C59.4195 69.5292 60.6504 67.8353 60.6504 65.5142C60.6504 63.2213 59.4195 61.5015 57.318 61.5015C56.1645 61.5015 55.0883 62.2051 54.5248 63.3247V67.7319C55.0883 68.8515 56.1645 69.5292 57.318 69.5292ZM57.6771 59.5457C61.0338 59.5457 62.8282 62.3355 62.8282 65.5142C62.8282 68.6963 61.0338 71.485 57.6771 71.485C56.2926 71.485 55.1137 70.7555 54.5248 69.9721V75.6562H52.3967V59.7851H54.5248V61.0879C55.1137 60.2797 56.2926 59.5502 57.6771 59.5502" fill="#9FA7AD"/>
<path d="M67.4846 61.5263C67.9708 60.3011 69.0481 59.5716 70.2778 59.5716C70.7651 59.5716 71.2004 59.6492 71.3794 59.7537V61.8904H71.3032C70.996 61.7353 70.4833 61.6566 69.9707 61.6566C68.8171 61.6566 67.8437 62.4378 67.4846 63.7417V71.2231H65.3577V59.7582H67.4846V61.5308" fill="#9FA7AD"/>
<path d="M74.4684 55.1419C75.212 55.1419 75.8263 55.741 75.8263 56.4975C75.8263 57.2539 75.212 57.853 74.4684 57.853C73.7513 57.853 73.1094 57.2539 73.1094 56.4975C73.1094 55.741 73.7513 55.1419 74.4684 55.1419Z" fill="#9FA7AD"/>
<path d="M73.4077 71.2376H75.5362V59.7637H73.4077V71.2376Z" fill="#9FA7AD"/>
<path d="M83.1314 64.4937C84.7457 65.0141 86.539 65.6919 86.539 67.8815C86.539 70.2284 84.643 71.4277 82.2088 71.4277C80.7216 71.4277 79.2355 71.0624 78.3892 70.3846V68.3254H78.4919C79.441 69.2112 80.8498 69.6023 82.1823 69.6023C83.3867 69.6023 84.464 69.1325 84.464 68.1422C84.464 67.1261 83.5679 66.8912 81.7978 66.2921C80.2089 65.7706 78.4411 65.1703 78.4411 63.0077C78.4411 60.7912 80.2344 59.4884 82.516 59.4884C83.8485 59.4884 85.0275 59.7751 85.9755 60.427V62.5132H85.8992C84.9777 61.7567 83.8993 61.3127 82.5668 61.3127C81.2343 61.3127 80.4907 61.9129 80.4907 62.7211C80.4907 63.6338 81.3105 63.8935 83.1314 64.4937Z" fill="#9FA7AD"/>
<path d="M90.5576 64.4037H96.1694C96.0932 62.7098 95.2733 61.4071 93.5298 61.4071C91.9155 61.4071 90.8647 62.6323 90.5576 64.4037ZM93.9143 71.4951C90.6084 71.4951 88.3533 69.2527 88.3533 65.6559C88.3533 62.0579 90.4548 59.5558 93.5044 59.5558C96.607 59.5558 98.2201 61.8241 98.2201 65.186V66.1774H90.4802C90.7112 68.4974 92.1718 69.618 94.196 69.618C95.4534 69.618 96.3495 69.3314 97.3483 68.5749H97.4257V70.479C96.5042 71.2085 95.2987 71.4951 93.9143 71.4951Z" fill="#9FA7AD"/>
</g>
<defs>
<clipPath id="clip0_380_2564">
<rect width="163" height="82" fill="white"/>
</clipPath>
</defs>
</svg>
