<svg width="84" height="82" viewBox="0 0 84 82" fill="none" xmlns="http://www.w3.org/2000/svg">
<g clip-path="url(#clip0_380_2510)">
<path d="M42.1167 -0.000266811L33.08 24.7331L39.223 24.7349C43.6481 24.7362 45.5312 28.1422 44.1377 31.9565L35.1522 56.5496H26.1105L35.9964 29.4891H31.341L21.4559 56.5496H12.336L32.6203 1.02548C13.9404 5.18551 -0.000244141 21.5021 -0.000244141 40.998C-0.000244141 60.1905 13.5086 76.3005 31.7501 80.7672L52.2435 24.5952H67.0855C70.1553 24.5952 74.0162 26.6158 72.3478 31.2147L64.0147 54.1842C62.9503 57.1182 60.4201 57.7128 58.4044 57.7128H49.2804L40.431 81.9681C40.952 81.9867 41.4741 81.9995 41.9994 81.9995C65.1952 81.9995 83.9994 63.6434 83.9994 40.9987C83.9994 18.3925 65.2582 0.0610129 42.1153 -0.000488281L42.1167 -0.000266811ZM59.6013 29.4227L50.9938 53.0097H55.5774L64.1866 29.4227H59.6013Z" fill="#9FA7AD"/>
</g>
<defs>
<clipPath id="clip0_380_2510">
<rect width="84" height="82" fill="white"/>
</clipPath>
</defs>
</svg>
