<svg width="141" height="82" viewBox="0 0 141 82" fill="none" xmlns="http://www.w3.org/2000/svg">
<path d="M59.2108 29.458C56.6902 29.458 53.8236 30.6445 52.0721 33.0198L52.0733 33.015L52.0721 33.0162L52.0733 29.831H46.0615V52.0612H52.0721V39.4119C52.0721 37.1352 53.8105 34.7153 57.0291 34.7153C59.5165 34.7153 62.0904 36.4722 62.0904 39.4119V52.0612H68.1022V38.2808C68.1022 33.1678 64.4996 29.458 59.2108 29.458Z" fill="#9FA7AD"/>
<path d="M110.829 29.832L105.394 44.9746L99.9596 29.832H93.0923L102.1 52.055H108.687L117.695 29.832H110.829Z" fill="#9FA7AD"/>
<path d="M28.1146 36.529C29.1385 35.1331 30.7691 34.3136 32.7387 34.3136C34.9049 34.3136 36.5486 35.5699 37.3983 37.4242L26.8952 41.8488C26.6084 39.5782 27.1808 37.8021 28.1146 36.529ZM39.6641 45.2266C37.134 47.1278 35.6882 47.5815 33.381 47.5815C31.3048 47.5815 29.6789 46.9269 28.5329 45.7789L43.9018 39.305C43.5664 36.8924 42.6646 34.7372 41.2769 33.0983C39.2576 30.7169 36.2689 29.457 32.6296 29.457C26.0195 29.457 21.0352 34.4087 21.0352 40.9488C21.0352 47.6585 26.0313 52.4393 33.2921 52.4393C37.3603 52.4393 41.5198 50.4815 43.4657 48.194L39.6641 45.2266Z" fill="#9FA7AD"/>
<path d="M20.4621 46.4561H6.79858V23.1826H0.705078V52.0611H20.4621V46.4561Z" fill="#9FA7AD"/>
<path d="M128.49 34.6879C125.132 34.6879 122.695 37.2714 122.695 40.9463C122.695 44.4552 125.277 47.2048 128.57 47.2048C131.929 47.2048 134.365 44.5503 134.365 40.9463C134.365 37.4375 131.784 34.6879 128.49 34.6879ZM128.49 52.4357C121.915 52.4357 116.764 47.4623 116.764 40.9463C116.764 34.5038 121.951 29.457 128.57 29.457C135.145 29.457 140.295 34.4304 140.295 40.9463C140.295 47.3877 135.109 52.4357 128.49 52.4357Z" fill="#9FA7AD"/>
<path d="M82.2053 34.6879C78.8481 34.6879 76.4116 37.2714 76.4116 40.9463C76.4116 44.4552 78.9926 47.2048 82.2871 47.2048C85.6443 47.2048 88.0808 44.5503 88.0808 40.9463C88.0808 37.4375 85.4997 34.6879 82.2053 34.6879ZM82.2053 52.4357C75.6307 52.4357 70.4805 47.4623 70.4805 40.9463C70.4805 34.5038 75.6662 29.457 82.2871 29.457C88.8605 29.457 94.0119 34.4304 94.0119 40.9463C94.0119 47.3877 88.825 52.4357 82.2053 52.4357Z" fill="#9FA7AD"/>
</svg>
