<svg width="184" height="82" viewBox="0 0 184 82" fill="none" xmlns="http://www.w3.org/2000/svg">
<path d="M76.5212 28.1294V51.709H72.4335V33.2056H72.379L65.0757 51.709H62.3506L54.8838 33.2056H54.8293V51.709H51.0686V28.1294H56.9549L63.7132 45.5958H63.8222L70.962 28.1294H76.5212ZM79.9004 29.9307C79.9004 29.2757 80.1184 28.7298 80.6089 28.2932C81.0994 27.8565 81.6444 27.6382 82.2985 27.6382C83.007 27.6382 83.6065 27.8565 84.0425 28.2932C84.4786 28.7298 84.7511 29.2757 84.7511 29.9307C84.7511 30.5856 84.5331 31.1315 84.0425 31.5681C83.552 32.0048 83.007 32.2231 82.2985 32.2231C81.5899 32.2231 81.0449 32.0048 80.6089 31.5681C80.1729 31.0769 79.9004 30.5311 79.9004 29.9307ZM84.315 34.7885V51.709H80.3364V34.7885H84.315ZM96.3601 48.8161C96.9596 48.8161 97.6136 48.7069 98.3222 48.3795C99.0307 48.1065 99.6847 47.7245 100.284 47.2878V50.9994C99.6302 51.3815 98.9217 51.6544 98.1041 51.8181C97.2866 51.9819 96.4146 52.091 95.4335 52.091C92.9264 52.091 90.9098 51.3269 89.3838 49.744C87.8032 48.1611 87.0402 46.1416 87.0402 43.74C87.0402 41.0109 87.8577 38.773 89.4383 37.0263C91.0188 35.2797 93.2534 34.4064 96.1966 34.4064C96.9596 34.4064 97.7226 34.5156 98.4312 34.6793C99.1942 34.8431 99.7937 35.116 100.23 35.3343V39.1551C99.6302 38.7184 98.9762 38.3363 98.3767 38.118C97.7226 37.8997 97.0686 37.7359 96.4146 37.7359C94.834 37.7359 93.5804 38.2272 92.5994 39.2642C91.6184 40.3013 91.1824 41.6658 91.1824 43.4125C91.1824 45.1045 91.6729 46.4691 92.5994 47.397C93.5259 48.3249 94.7795 48.8161 96.3601 48.8161ZM111.566 34.5156C111.893 34.5156 112.166 34.5156 112.438 34.5701C112.711 34.6247 112.929 34.6793 113.092 34.7339V38.773C112.874 38.6092 112.602 38.4455 112.166 38.3363C111.73 38.2272 111.294 38.118 110.694 38.118C109.713 38.118 108.896 38.5547 108.242 39.3734C107.588 40.1921 107.206 41.4475 107.206 43.1941V51.709H103.227V34.7885H107.206V37.463H107.261C107.642 36.5351 108.187 35.8255 108.896 35.2797C109.659 34.7885 110.531 34.5156 111.566 34.5156ZM113.31 43.5216C113.31 40.7379 114.128 38.5001 115.654 36.8626C117.234 35.2251 119.415 34.4064 122.194 34.4064C124.81 34.4064 126.881 35.1706 128.353 36.7534C129.825 38.3363 130.588 40.465 130.588 43.1396C130.588 45.8687 129.77 48.052 128.244 49.6894C126.663 51.3269 124.538 52.1456 121.813 52.1456C119.197 52.1456 117.125 51.3815 115.599 49.8532C114.073 48.2703 113.31 46.1416 113.31 43.5216ZM117.452 43.3579C117.452 45.1045 117.834 46.4691 118.652 47.397C119.469 48.3249 120.614 48.8161 122.085 48.8161C123.502 48.8161 124.647 48.3795 125.41 47.397C126.173 46.4691 126.554 45.1045 126.554 43.2487C126.554 41.4475 126.173 40.083 125.41 39.1005C124.647 38.1726 123.502 37.6813 122.14 37.6813C120.668 37.6813 119.578 38.1726 118.761 39.1551C117.834 40.1921 117.452 41.5567 117.452 43.3579ZM136.528 39.2642C136.528 39.81 136.692 40.3013 137.073 40.6288C137.455 40.9563 138.218 41.3383 139.471 41.8296C141.052 42.4846 142.197 43.1941 142.796 43.9583C143.45 44.777 143.777 45.7049 143.777 46.8512C143.777 48.434 143.178 49.6894 141.924 50.6719C140.725 51.6544 139.035 52.091 136.964 52.091C136.256 52.091 135.493 51.9819 134.621 51.8181C133.749 51.6544 133.04 51.4361 132.441 51.1631V47.2332C133.149 47.7245 133.967 48.1611 134.784 48.434C135.602 48.7069 136.365 48.8707 137.073 48.8707C137.945 48.8707 138.654 48.7615 139.035 48.4886C139.471 48.2157 139.689 47.8336 139.689 47.2332C139.689 46.6874 139.471 46.2507 139.035 45.8141C138.599 45.432 137.727 44.9954 136.528 44.5041C135.057 43.9037 134.021 43.1941 133.422 42.43C132.822 41.6658 132.495 40.6834 132.495 39.4825C132.495 37.9542 133.095 36.6989 134.294 35.7164C135.493 34.7339 137.073 34.2427 138.981 34.2427C139.58 34.2427 140.234 34.2972 140.943 34.461C141.652 34.6247 142.306 34.7885 142.796 34.9522V38.8276C142.251 38.5001 141.652 38.1726 140.943 37.8997C140.234 37.6268 139.526 37.5176 138.872 37.5176C138.109 37.5176 137.509 37.6813 137.128 37.9542C136.746 38.3363 136.528 38.7184 136.528 39.2642ZM145.467 43.5216C145.467 40.7379 146.284 38.5001 147.81 36.8626C149.391 35.2251 151.571 34.4064 154.351 34.4064C156.967 34.4064 159.038 35.1706 160.509 36.7534C161.981 38.3363 162.744 40.465 162.744 43.1396C162.744 45.8687 161.926 48.052 160.4 49.6894C158.82 51.3269 156.694 52.1456 153.969 52.1456C151.353 52.1456 149.282 51.3815 147.756 49.8532C146.284 48.2703 145.467 46.1416 145.467 43.5216ZM149.609 43.3579C149.609 45.1045 149.99 46.4691 150.808 47.397C151.625 48.3249 152.77 48.8161 154.242 48.8161C155.659 48.8161 156.803 48.3795 157.566 47.397C158.329 46.4691 158.711 45.1045 158.711 43.2487C158.711 41.4475 158.329 40.083 157.566 39.1005C156.803 38.1726 155.659 37.6813 154.296 37.6813C152.825 37.6813 151.734 38.1726 150.917 39.1551C150.045 40.1921 149.609 41.5567 149.609 43.3579ZM175.988 38.0634H170.047V51.709H166.014V38.0634H163.18V34.7885H166.014V32.4414C166.014 30.6948 166.614 29.2211 167.758 28.0749C168.903 26.9286 170.374 26.3828 172.173 26.3828C172.663 26.3828 173.099 26.4374 173.481 26.4374C173.862 26.4374 174.189 26.5466 174.462 26.6557V30.0944C174.353 30.0398 174.08 29.9307 173.753 29.8215C173.426 29.7123 173.045 29.6577 172.609 29.6577C171.791 29.6577 171.137 29.9307 170.701 30.4219C170.265 30.9131 170.047 31.7319 170.047 32.7144V34.7339H175.988V30.9131L179.967 29.7123V34.7339H184V38.0088H179.967V45.9233C179.967 46.9603 180.185 47.6699 180.512 48.1065C180.893 48.5432 181.493 48.7615 182.31 48.7615C182.528 48.7615 182.801 48.7069 183.128 48.5978C183.455 48.4886 183.727 48.3795 183.945 48.2157V51.4906C183.673 51.6544 183.291 51.7636 182.692 51.8727C182.092 51.9819 181.547 52.0365 180.948 52.0365C179.258 52.0365 178.005 51.5998 177.187 50.7265C176.37 49.8532 175.934 48.4886 175.934 46.6874L175.988 38.0634Z" fill="#9FA7AD"/>
<path d="M18.6398 20.2695H0V38.9367H18.6398V20.2695Z" fill="#9FA7AD"/>
<path d="M39.2416 20.2695H20.6018V38.9367H39.2416V20.2695Z" fill="#9FA7AD"/>
<path d="M18.6398 40.9019H0V59.569H18.6398V40.9019Z" fill="#9FA7AD"/>
<path d="M39.2416 40.9019H20.6018V59.569H39.2416V40.9019Z" fill="#9FA7AD"/>
</svg>
