<?xml version="1.0" encoding="iso-8859-1"?><!DOCTYPE svg PUBLIC "-//W3C//DTD SVG 1.1//EN" "http://www.w3.org/Graphics/SVG/1.1/DTD/svg11.dtd"><svg xmlns="http://www.w3.org/2000/svg" xmlns:xlink="http://www.w3.org/1999/xlink"><symbol viewBox="0 0 451.847 451.847" id="arrow" xmlns="http://www.w3.org/2000/svg"><path d="M225.923 354.706c-8.098 0-16.195-3.092-22.369-9.263L9.27 151.157c-12.359-12.359-12.359-32.397 0-44.751 12.354-12.354 32.388-12.354 44.748 0l171.905 171.915 171.906-171.909c12.359-12.354 32.391-12.354 44.744 0 12.365 12.354 12.365 32.392 0 44.751L248.292 345.449c-6.177 6.172-14.274 9.257-22.369 9.257z"/></symbol><symbol viewBox="0 0 256 256" id="cancel" xmlns="http://www.w3.org/2000/svg"><path d="M20.922 1.702l-19.22 19.22L108.781 128 1.069 235.923l19.008 19.008L128 147.22l107.712 107.712 19.22-19.219L147.218 128 254.298 20.922l-19.22-19.22L128 108.781z" font-family="none" font-weight="none" font-size="none" text-anchor="none"/></symbol><symbol viewBox="0 0 50 50" id="hamburger" xmlns="http://www.w3.org/2000/svg"><path d="M0 7.5v5h50v-5zm0 15v5h50v-5zm0 15v5h50v-5z"/></symbol><symbol viewBox="0 0 16 16" id="moon" xmlns="http://www.w3.org/2000/svg"><path d="M6 .278a.768.768 0 01.08.858 7.208 7.208 0 00-.878 3.46c0 4.021 3.278 7.277 7.318 7.277.527 0 1.04-.055 1.533-.16a.787.787 0 01.81.316.733.733 0 01-.031.893A8.349 8.349 0 018.344 16C3.734 16 0 12.286 0 7.71 0 4.266 2.114 1.312 5.124.06A.752.752 0 016 .278z"/><path d="M10.794 3.148a.217.217 0 01.412 0l.387 1.162c.173.518.579.924 1.097 1.097l1.162.387a.217.217 0 010 .412l-1.162.387a1.734 1.734 0 00-1.097 1.097l-.387 1.162a.217.217 0 01-.412 0l-.387-1.162A1.734 1.734 0 009.31 6.593l-1.162-.387a.217.217 0 010-.412l1.162-.387a1.734 1.734 0 001.097-1.097l.387-1.162zM13.863.099a.145.145 0 01.274 0l.258.774c.115.346.386.617.732.732l.774.258a.145.145 0 010 .274l-.774.258a1.156 1.156 0 00-.732.732l-.258.774a.145.145 0 01-.274 0l-.258-.774a1.156 1.156 0 00-.732-.732l-.774-.258a.145.145 0 010-.274l.774-.258c.346-.115.617-.386.732-.732L13.863.1z"/></symbol><symbol viewBox="0 0 15 15" id="search" xmlns="http://www.w3.org/2000/svg"><path d="M10.417 9.167h-.659l-.233-.225a5.393 5.393 0 001.308-3.525 5.416 5.416 0 10-5.416 5.416 5.393 5.393 0 003.525-1.308l.225.233v.659l4.166 4.158 1.242-1.242-4.158-4.166zm-5 0a3.745 3.745 0 01-3.75-3.75 3.745 3.745 0 013.75-3.75 3.745 3.745 0 013.75 3.75 3.745 3.745 0 01-3.75 3.75z"/></symbol><symbol viewBox="0 0 7 12" id="socials--facebook" xmlns="http://www.w3.org/2000/svg"><path d="M6.244.002L4.687 0C2.94 0 1.81 1.16 1.81 2.953v1.362H.245A.245.245 0 000 4.56v1.973c0 .135.11.244.245.244h1.564v4.978c0 .135.11.245.245.245h2.041c.136 0 .245-.11.245-.245V6.777h1.83c.135 0 .244-.11.244-.244V4.56a.245.245 0 00-.244-.245H4.34V3.16c0-.555.132-.837.855-.837h1.048c.135 0 .245-.11.245-.245V.247a.245.245 0 00-.245-.245z"/></symbol><symbol viewBox="0 0 14 11" id="socials--gmail" xmlns="http://www.w3.org/2000/svg"><path d="M12.6 0H1.4C.63 0 .007.619.007 1.375L0 9.625C0 10.381.63 11 1.4 11h11.2c.77 0 1.4-.619 1.4-1.375v-8.25C14 .619 13.37 0 12.6 0zm0 2.75L7 6.188 1.4 2.75V1.375L7 4.813l5.6-3.438V2.75z"/></symbol><symbol viewBox="0 0 12 13" id="socials--instagram" xmlns="http://www.w3.org/2000/svg"><path d="M11.97 3.529c-.029-.638-.132-1.076-.28-1.456a2.929 2.929 0 00-.693-1.065A2.953 2.953 0 009.934.317C9.552.169 9.116.066 8.478.037 7.836.008 7.632 0 6.002 0S4.17.007 3.53.035c-.638.028-1.076.132-1.456.28a2.928 2.928 0 00-1.065.693c-.304.3-.541.664-.691 1.062-.148.383-.251.819-.28 1.456C.008 4.17 0 4.373 0 6.002c0 1.63.007 1.834.035 2.474.028.638.132 1.076.28 1.456.152.403.389.764.693 1.064.3.305.664.542 1.063.692.382.148.818.251 1.456.28.64.027.844.034 2.473.034 1.63 0 1.834-.007 2.474-.035.638-.028 1.076-.131 1.456-.279a3.07 3.07 0 001.756-1.756c.148-.382.25-.818.279-1.456.028-.64.035-.844.035-2.474 0-1.63-.002-1.833-.03-2.473zm-1.081 4.9c-.026.586-.124.903-.207 1.114a1.99 1.99 0 01-1.14 1.14c-.21.081-.529.18-1.113.206-.633.028-.823.035-2.424.035-1.602 0-1.794-.007-2.425-.035-.586-.026-.902-.125-1.113-.207a1.846 1.846 0 01-.69-.447c-.199-.195-.351-.43-.447-.69-.083-.21-.181-.53-.207-1.114-.028-.633-.035-.823-.035-2.424s.007-1.794.035-2.424c.026-.587.124-.903.207-1.114.096-.26.248-.497.45-.69.194-.199.429-.351.69-.447.21-.082.529-.18 1.113-.207.633-.028.823-.035 2.424-.035 1.604 0 1.794.007 2.425.035.586.026.902.125 1.113.207.26.096.497.248.69.448.199.194.351.429.447.689.082.211.181.53.207 1.114.028.633.035.823.035 2.424s-.007 1.789-.035 2.422z"/><path d="M6.003 2.92a3.084 3.084 0 10.001 6.167 3.084 3.084 0 00-.001-6.168zm0 5.082a2 2 0 110-4 2 2 0 010 4zM9.928 2.797a.72.72 0 11-1.44 0 .72.72 0 011.44 0z"/></symbol><symbol viewBox="0 0 13 12" id="socials--linkedin" xmlns="http://www.w3.org/2000/svg"><path d="M1.474 0c.8 0 1.474.674 1.474 1.474 0 .842-.716 1.494-1.474 1.473C.695 2.968.001 2.316.001 1.474-.02.653.653 0 1.474 0zM2.295 12H.611a.422.422 0 01-.42-.421V4.211c0-.232.168-.421.4-.421h1.704c.232 0 .421.189.421.42v7.39c0 .21-.189.4-.42.4zM12.19 6.358c0-1.558-1.158-2.78-2.716-2.78h-.442c-.842 0-1.663.4-2.105 1.053l-.21.211V4c0-.084-.127-.21-.211-.21H4.4c-.085 0-.211.084-.211.189v7.852c0 .085.126.169.21.169h2.316c.085 0 .21-.084.21-.168V7.284c0-.779.59-1.431 1.37-1.453.4 0 .757.148 1.03.422.253.252.359.61.359 1.01v4.526c0 .085.126.21.21.21h2.106c.084 0 .21-.125.21-.21V6.358h-.021z"/></symbol><symbol viewBox="0 0 12 14" id="socials--pinterest" xmlns="http://www.w3.org/2000/svg"><path d="M6.2 0C2.154 0 0 2.459 0 5.14c0 1.243.733 2.794 1.906 3.286.178.076.275.044.315-.113.035-.12.19-.692.264-.963.023-.086.011-.162-.063-.243-.39-.427-.698-1.205-.698-1.935 0-1.87 1.568-3.685 4.237-3.685 2.308 0 3.922 1.42 3.922 3.453 0 2.297-1.282 3.887-2.948 3.887-.923 0-1.61-.687-1.391-1.535.263-1.011.779-2.098.779-2.827 0-.653-.39-1.194-1.186-1.194-.939 0-1.7.881-1.7 2.064 0 .752.28 1.26.28 1.26s-.928 3.555-1.1 4.22c-.293 1.124.039 2.945.068 3.102.017.086.12.113.177.043.091-.114 1.214-1.632 1.528-2.73l.585-2.021c.31.53 1.202.973 2.153.973 2.828 0 4.872-2.357 4.872-5.28C11.99 2.096 9.459 0 6.2 0z"/></symbol><symbol viewBox="0 0 16 13" id="socials--twitter" xmlns="http://www.w3.org/2000/svg"><path d="M16 1.539a6.839 6.839 0 01-1.89.518A3.262 3.262 0 0015.553.244a6.555 6.555 0 01-2.08.794 3.28 3.28 0 00-5.674 2.243c0 .26.022.51.076.748A9.284 9.284 0 011.114.598a3.285 3.285 0 001.008 4.384A3.24 3.24 0 01.64 4.578v.036a3.295 3.295 0 002.628 3.223 3.274 3.274 0 01-.86.108 2.9 2.9 0 01-.621-.056 3.311 3.311 0 003.065 2.285 6.59 6.59 0 01-4.067 1.399c-.269 0-.527-.012-.785-.045A9.234 9.234 0 005.032 13c6.036 0 9.336-5 9.336-9.334 0-.145-.005-.285-.012-.424A6.544 6.544 0 0016 1.539z"/></symbol><symbol viewBox="-0.64 -0.64 17.28 17.28" id="sun" xmlns="http://www.w3.org/2000/svg"><path d="M8 12a4 4 0 100-8 4 4 0 000 8zM8 0a.5.5 0 01.5.5v2a.5.5 0 01-1 0v-2A.5.5 0 018 0zm0 13a.5.5 0 01.5.5v2a.5.5 0 01-1 0v-2A.5.5 0 018 13zm8-5a.5.5 0 01-.5.5h-2a.5.5 0 010-1h2a.5.5 0 01.5.5zM3 8a.5.5 0 01-.5.5h-2a.5.5 0 010-1h2A.5.5 0 013 8zm10.657-5.657a.5.5 0 010 .707l-1.414 1.415a.5.5 0 11-.707-.708l1.414-1.414a.5.5 0 01.707 0zm-9.193 9.193a.5.5 0 010 .707L3.05 13.657a.5.5 0 01-.707-.707l1.414-1.414a.5.5 0 01.707 0zm9.193 2.121a.5.5 0 01-.707 0l-1.414-1.414a.5.5 0 01.707-.707l1.414 1.414a.5.5 0 010 .707zM4.464 4.465a.5.5 0 01-.707 0L2.343 3.05a.5.5 0 11.707-.707l1.414 1.414a.5.5 0 010 .708z"/></symbol><symbol viewBox="0 0 128 128" id="system" xmlns="http://www.w3.org/2000/svg"><g><path d="M1 119h126v8H1zM11 109h106V31H11v78zm8-70h90v62H19V39z"/></g></symbol></svg>