<?xml version="1.0" encoding="iso-8859-1"?><!DOCTYPE svg PUBLIC "-//W3C//DTD SVG 1.1//EN" "http://www.w3.org/Graphics/SVG/1.1/DTD/svg11.dtd"><svg xmlns="http://www.w3.org/2000/svg" xmlns:xlink="http://www.w3.org/1999/xlink"><symbol viewBox="0 0 451.847 451.847" id="arrow" xmlns="http://www.w3.org/2000/svg"><path d="M225.923 354.706c-8.098 0-16.195-3.092-22.369-9.263L9.27 151.157c-12.359-12.359-12.359-32.397 0-44.751 12.354-12.354 32.388-12.354 44.748 0l171.905 171.915 171.906-171.909c12.359-12.354 32.391-12.354 44.744 0 12.365 12.354 12.365 32.392 0 44.751L248.292 345.449c-6.177 6.172-14.274 9.257-22.369 9.257z"/></symbol><symbol viewBox="0 0 15 15" id="cancel" xmlns="http://www.w3.org/2000/svg"><path fill-rule="evenodd" clip-rule="evenodd" d="M14.716 1.654a.969.969 0 10-1.37-1.37L7.5 6.13 1.654.284a.97.97 0 00-1.37 1.37L6.129 7.5.284 13.346a.97.97 0 001.37 1.37L7.5 8.871l5.846 5.845a.97.97 0 001.37-1.37L8.871 7.5z"/></symbol><symbol viewBox="0 0 32 16" id="hamburger" xmlns="http://www.w3.org/2000/svg"><defs><path id="ca" d="M-1.263 30.9h49.591v19.028H-1.263z"/></defs><g transform="matrix(.99952 0 0 1.04746 .011 -.032)"><rect width="31.396" height="1.937" x=".299" y=".34" ry="0"/><rect width="31.396" height="1.937" x=".299" y="6.699" ry="0"/><rect width="31.396" height="1.937" x=".299" y="13.058" ry="0"/></g><text style="-inkscape-font-specification:'Calibri Bold'" x="-.863" y="47.771" transform="scale(1.05872 .94454)" font-weight="700" font-size="16" font-family="Calibri"/></symbol><symbol viewBox="0 0 105 82" id="partners--cisco" xmlns="http://www.w3.org/2000/svg"><path d="M34.301 48.162h-4.604V66.16h4.604V48.162zM23.368 53.319c-.185-.095-1.666-.961-3.868-.961-2.982 0-5.046 2.044-5.046 4.8 0 2.675 1.978 4.806 5.046 4.806 2.165 0 3.67-.848 3.868-.956v4.831c-.572.16-2.142.64-4.199.64-5.175 0-9.715-3.521-9.715-9.32 0-5.375 4.112-9.317 9.715-9.317 2.167 0 3.766.52 4.199.646v4.831zM70.789 53.286c-.185-.095-1.665-.961-3.868-.961-2.982 0-5.045 2.044-5.045 4.8 0 2.675 1.977 4.805 5.045 4.805 2.165 0 3.67-.847 3.868-.955v4.83c-.572.16-2.142.641-4.199.641-5.175 0-9.715-3.522-9.715-9.32 0-5.375 4.112-9.317 9.715-9.317 2.167 0 3.766.52 4.199.646v4.83zM85.908 52.426c-2.731 0-4.76 2.12-4.76 4.733 0 2.618 2.029 4.737 4.76 4.737 2.729 0 4.763-2.12 4.763-4.737 0-2.613-2.034-4.733-4.763-4.733zm9.641 4.733c0 5.148-4.03 9.32-9.64 9.32-5.613 0-9.636-4.172-9.636-9.32 0-5.14 4.023-9.317 9.635-9.317s9.641 4.177 9.641 9.317zM51.761 52.253c-.068-.022-2.007-.55-3.599-.55-1.845 0-2.848.61-2.848 1.475 0 1.096 1.353 1.479 2.11 1.715l1.27.398c2.988.938 4.35 2.957 4.35 5.149 0 4.522-4.03 6.04-7.554 6.04-2.448 0-4.742-.444-4.968-.491v-4.142c.405.1 2.336.669 4.347.669 2.291 0 3.344-.66 3.344-1.68 0-.913-.911-1.439-2.053-1.793-.279-.092-.697-.221-.983-.313-2.564-.8-4.702-2.286-4.702-5.266 0-3.366 2.555-5.626 6.799-5.626 2.241 0 4.35.536 4.487.572v3.843zM4.572 28.82c0-1.24-1.027-2.246-2.285-2.246C1.028 26.574 0 27.579 0 28.819v4.725c0 1.247 1.028 2.254 2.287 2.254 1.258 0 2.285-1.007 2.285-2.254v-4.725zM17.127 22.619c0-1.24-1.027-2.249-2.285-2.249-1.26 0-2.287 1.009-2.287 2.249v10.926c0 1.247 1.027 2.253 2.287 2.253 1.258 0 2.285-1.006 2.285-2.253V22.619zM29.683 14.134c0-1.24-1.027-2.247-2.286-2.247-1.26 0-2.286 1.007-2.286 2.247v23.9c0 1.247 1.026 2.254 2.286 2.254 1.259 0 2.286-1.007 2.286-2.254v-23.9zM42.238 22.619c0-1.24-1.027-2.249-2.285-2.249-1.26 0-2.287 1.009-2.287 2.249v10.926c0 1.247 1.027 2.253 2.287 2.253 1.258 0 2.285-1.006 2.285-2.253V22.619zM54.779 28.82c0-1.24-1.02-2.246-2.272-2.246-1.259 0-2.285 1.005-2.285 2.245v4.725c0 1.247 1.026 2.254 2.285 2.254a2.263 2.263 0 002.272-2.254v-4.725z"/><path d="M54.785 28.82c0-1.24-1.027-2.246-2.285-2.246-1.259 0-2.287 1.005-2.287 2.245v4.725c0 1.247 1.028 2.254 2.287 2.254 1.258 0 2.285-1.007 2.285-2.254v-4.725zM67.34 22.619c0-1.24-1.027-2.249-2.285-2.249-1.26 0-2.287 1.009-2.287 2.249v10.926c0 1.247 1.027 2.253 2.287 2.253 1.258 0 2.285-1.006 2.285-2.253V22.619zM79.895 14.134c0-1.24-1.026-2.247-2.285-2.247-1.26 0-2.287 1.007-2.287 2.247v23.9c0 1.247 1.027 2.254 2.287 2.254 1.259 0 2.285-1.007 2.285-2.254v-23.9zM92.45 22.619c0-1.24-1.026-2.249-2.284-2.249-1.26 0-2.287 1.009-2.287 2.249v10.926c0 1.247 1.027 2.253 2.287 2.253 1.258 0 2.285-1.006 2.285-2.253V22.619zM104.992 28.82c0-1.24-1.02-2.246-2.272-2.246-1.259 0-2.285 1.005-2.285 2.245v4.725c0 1.247 1.026 2.254 2.285 2.254a2.264 2.264 0 002.272-2.254v-4.725zM102.366 63.79v.282h-.814v2.087h-.334V64.07h-.818v-.281h1.966zM102.536 63.79h.524l.719 1.943h.012l.695-1.943H105v2.369h-.343v-1.942h-.012l-.729 1.942h-.316l-.712-1.942h-.016v1.942h-.336v-2.37z"/></symbol><symbol viewBox="0 0 196 83" id="partners--cove" xmlns="http://www.w3.org/2000/svg"><path d="M40.03 46.546a15.137 15.137 0 01-6.93 7.424 15.267 15.267 0 01-10.088 1.401 15.204 15.204 0 01-8.71-5.251 15.05 15.05 0 01-3.416-9.542 15.05 15.05 0 013.416-9.542 15.204 15.204 0 018.71-5.251A15.267 15.267 0 0133.1 27.186a15.137 15.137 0 016.93 7.424l2.819-1.624a18.37 18.37 0 00-8.506-8.79 18.522 18.522 0 00-12.171-1.531 18.443 18.443 0 00-10.44 6.404 18.257 18.257 0 00-4.084 11.503c0 4.185 1.441 8.244 4.083 11.502a18.443 18.443 0 0010.441 6.404c4.114.887 8.409.346 12.17-1.532a18.37 18.37 0 008.507-8.789l-2.82-1.61z"/><path d="M48.874 51.621l-2.324-1.335a22.617 22.617 0 01-8.369 9.358 22.8 22.8 0 01-12.097 3.484c-12.508 0-22.68-10.117-22.68-22.55 0-12.434 10.172-22.55 22.677-22.55a22.8 22.8 0 0112.099 3.483 22.618 22.618 0 018.37 9.358l2.324-1.335.49-.277a25.848 25.848 0 00-9.563-10.537 26.054 26.054 0 00-13.72-3.912c-14.292 0-25.918 11.56-25.918 25.77 0 14.21 11.626 25.77 25.918 25.77a26.053 26.053 0 0013.717-3.916 25.848 25.848 0 009.56-10.538l-.484-.273z"/><path d="M38.855 40.578l12.324 7.074V33.503l-12.324 7.075zM74.459 26.56c.762-.507 1.714-.76 2.856-.76 1.252 0 2.273.301 3.065.902.791.6 1.354 1.445 1.688 2.532l3.43-.945a8.111 8.111 0 00-2.969-4.142c-1.405-1.02-3.14-1.529-5.209-1.528-1.8 0-3.352.39-4.658 1.168a7.812 7.812 0 00-3.013 3.27c-.705 1.4-1.057 3.03-1.057 4.887 0 1.858.352 3.487 1.057 4.886a7.812 7.812 0 003.013 3.27c1.307.78 2.86 1.17 4.658 1.17 2.07 0 3.806-.51 5.209-1.53a8.112 8.112 0 002.97-4.142l-3.43-.943a4.903 4.903 0 01-1.69 2.524c-.792.604-1.814.906-3.064.906-1.142 0-2.094-.252-2.856-.757a4.635 4.635 0 01-1.72-2.139 8.403 8.403 0 01-.575-3.248 8.404 8.404 0 01.575-3.248 4.636 4.636 0 011.72-2.134zM97.905 28.003a7.48 7.48 0 00-7.121-.013 6.35 6.35 0 00-2.42 2.493 7.581 7.581 0 00-.876 3.7 7.668 7.668 0 00.856 3.673 6.333 6.333 0 002.394 2.506 7.502 7.502 0 007.148 0 6.364 6.364 0 002.414-2.498 7.618 7.618 0 00.869-3.686 7.603 7.603 0 00-.858-3.67 6.333 6.333 0 00-2.406-2.505zm-1.143 9.007c-.538.734-1.355 1.101-2.45 1.101-1.059 0-1.861-.354-2.408-1.064-.546-.709-.819-1.664-.816-2.864-.014-.7.102-1.396.343-2.053a2.946 2.946 0 011.056-1.38c.476-.332 1.085-.498 1.827-.498 1.075 0 1.886.357 2.432 1.07.545.714.817 1.667.816 2.86.008 1.152-.257 2.093-.795 2.823l-.005.005zM108.778 36.768l-3.201-9.301h-3.402l4.903 13.429h3.401l4.901-13.43h-3.4l-3.202 9.302zM129.523 35.126c.143-1.624-.024-3.037-.499-4.24a5.857 5.857 0 00-2.202-2.797c-.991-.66-2.195-.991-3.613-.991a6.867 6.867 0 00-3.539.901 6.334 6.334 0 00-2.413 2.527c-.585 1.083-.876 2.36-.875 3.83a7.056 7.056 0 00.893 3.573 6.433 6.433 0 002.476 2.449c1.12.61 2.381.916 3.657.89a6.699 6.699 0 003.594-1.02 5.968 5.968 0 002.407-2.86l-3.4-.974a2.788 2.788 0 01-1.088 1.255 3.225 3.225 0 01-1.714.435c-1.058 0-1.861-.342-2.407-1.026a3.888 3.888 0 01-.75-1.952h9.473zm-6.164-5.105c.992 0 1.707.301 2.145.903.287.395.478.958.576 1.684h-5.945a3.78 3.78 0 01.666-1.536c.546-.7 1.399-1.05 2.558-1.05zM77.013 47.561a4.116 4.116 0 00-2.304-1.036 7.19 7.19 0 00-.922-.076h-4.37v12.273h3.678c.13 0 .361 0 .69-.013.31-.008.621-.031.93-.072a4.124 4.124 0 002.305-1.031 5.166 5.166 0 001.372-2.144 9.31 9.31 0 000-5.744 5.184 5.184 0 00-1.379-2.157zm.451 7.407a4.143 4.143 0 01-1.024 1.787 3.384 3.384 0 01-1.852.906 5.974 5.974 0 01-.703.073c-.274.015-.54.021-.797.021h-2.64V47.407h2.64c.24 0 .502 0 .785.021.24.01.478.035.715.073.698.096 1.346.41 1.852.898a4.198 4.198 0 011.027 1.787c.227.78.337 1.588.327 2.4a8.366 8.366 0 01-.33 2.386v-.004zM87.686 51.134a2.655 2.655 0 00-1.212-1.39 4.294 4.294 0 00-2.148-.487c-1 0-1.82.224-2.46.672a3.223 3.223 0 00-1.277 1.928l1.01.28c.184-.659.502-1.146.956-1.46a2.969 2.969 0 011.736-.475c1 0 1.699.243 2.096.73.374.457.56 1.144.562 2.053-.273.035-.585.074-.947.116-.534.062-1.095.134-1.684.217-.59.082-1.144.18-1.647.294-.429.102-.84.266-1.222.488-.36.207-.662.5-.882.852a2.425 2.425 0 00-.326 1.313c-.004.47.117.932.351 1.34.248.427.616.773 1.058.995a3.775 3.775 0 001.78.375 4.485 4.485 0 002.477-.674c.466-.3.854-.705 1.13-1.184v1.601h.9v-5.737a9.43 9.43 0 00-.05-.985 3.196 3.196 0 00-.201-.862zm-.84 4.223a3.182 3.182 0 01-.562 1.435c-.296.41-.693.736-1.153.947a3.832 3.832 0 01-1.654.336 2.717 2.717 0 01-1.32-.282 1.63 1.63 0 01-.698-.69 1.838 1.838 0 01-.21-.835c-.014-.33.08-.657.27-.93.176-.241.409-.438.677-.574.26-.137.534-.246.817-.325.48-.123.966-.217 1.456-.28a42.212 42.212 0 011.582-.19c.326-.032.63-.063.903-.093v.469c-.008.34-.044.678-.108 1.012zM92.203 46.956h-.994v2.554h-2.075v.895h2.075v5.114c0 .426.008.805.026 1.137.02.338.108.67.256.974.173.381.47.692.845.882.399.198.836.309 1.282.325.489.025.98-.016 1.457-.123v-.887a5.19 5.19 0 01-1.706.039 1.327 1.327 0 01-.98-.712 1.615 1.615 0 01-.174-.695c-.01-.253-.013-.571-.013-.958v-5.094h2.871v-.897h-2.87v-2.554zM103.784 51.134a2.658 2.658 0 00-1.214-1.39 4.286 4.286 0 00-2.146-.487c-1.002 0-1.822.224-2.46.672a3.222 3.222 0 00-1.27 1.928l1.01.28c.183-.659.502-1.146.956-1.46a2.966 2.966 0 011.736-.475c1 0 1.698.243 2.096.73.374.457.558 1.144.56 2.053-.271.035-.585.074-.946.116-.533.062-1.095.134-1.685.218-.588.08-1.144.18-1.645.293-.43.102-.841.266-1.222.488-.36.207-.663.5-.882.852a2.425 2.425 0 00-.326 1.313c-.004.47.118.932.352 1.34.249.427.616.773 1.059.995a3.763 3.763 0 001.778.375 4.484 4.484 0 002.477-.674 3.449 3.449 0 001.131-1.184v1.601h.9v-5.737a9.242 9.242 0 00-.05-.985c-.03-.295-.1-.585-.209-.862zm-.84 4.223a3.168 3.168 0 01-.562 1.435 2.943 2.943 0 01-1.153.947 3.829 3.829 0 01-1.654.336 2.712 2.712 0 01-1.32-.273 1.65 1.65 0 01-.7-.69 1.834 1.834 0 01-.208-.834c-.014-.331.08-.657.27-.93.176-.242.409-.439.677-.574.26-.137.534-.246.817-.325.48-.123.966-.217 1.457-.281a41.642 41.642 0 011.581-.189c.326-.032.63-.063.901-.094v.47a5.815 5.815 0 01-.106 1.002zM116.765 47.173a3.408 3.408 0 00-1.589-.66 3.77 3.77 0 00-.443-.056c-.14 0-.269-.013-.388-.013h-4.655v12.273h.98v-4.782h3.67c.119 0 .248 0 .389-.017.14-.018.287-.028.442-.05a3.347 3.347 0 001.564-.635 3.314 3.314 0 001.049-1.314 4.397 4.397 0 000-3.445 3.357 3.357 0 00-1.019-1.301zm.108 4.214a2.556 2.556 0 01-.67.975 2.299 2.299 0 01-1.114.54 5.146 5.146 0 01-.762.069h-3.652v-5.572h3.658a3.603 3.603 0 01.763.076c.414.076.799.263 1.114.54.296.27.526.603.67.975a3.288 3.288 0 01-.007 2.397zM123.268 49.43a3.74 3.74 0 00-1.003.205 2.474 2.474 0 00-.867.516 2.908 2.908 0 00-.654.822v-1.462h-.9v9.206h.993v-4.56c0-.374.022-.76.061-1.155.039-.39.131-.772.274-1.137.148-.368.383-.694.686-.95a2.205 2.205 0 011.157-.528 3.307 3.307 0 011.166.05v-.927a2.9 2.9 0 00-.913-.08zM131.784 49.874a4.758 4.758 0 00-4.663-.013 3.929 3.929 0 00-1.48 1.7 5.896 5.896 0 00-.514 2.537c-.017.87.156 1.733.506 2.53a3.986 3.986 0 001.47 1.723 4.22 4.22 0 002.34.622 4.268 4.268 0 002.333-.614 3.904 3.904 0 001.47-1.71 6.004 6.004 0 00.506-2.55 5.942 5.942 0 00-.501-2.515 3.937 3.937 0 00-1.467-1.71zm.101 7.053c-.544.728-1.361 1.092-2.45 1.092-1.068 0-1.878-.358-2.43-1.074-.552-.716-.828-1.665-.827-2.847a5.3 5.3 0 01.356-2.015 2.994 2.994 0 011.075-1.373 3.135 3.135 0 011.826-.498c1.089 0 1.906.352 2.45 1.055.545.704.817 1.648.817 2.831-.004 1.159-.277 2.102-.817 2.83zM137.677 46.956h-.995v2.554h-2.074v.895h2.074v5.114c0 .426.008.805.025 1.137.021.338.109.67.258.974.172.381.47.692.844.882a3.15 3.15 0 001.281.325c.489.025.98-.016 1.458-.123v-.887a5.191 5.191 0 01-1.706.039 1.315 1.315 0 01-.98-.711 1.605 1.605 0 01-.177-.696c0-.253-.011-.571-.011-.958v-5.094h2.874v-.897h-2.871v-2.554zM150.054 54.395c.017-1.083-.142-2.006-.477-2.769a3.827 3.827 0 00-1.456-1.76 4.198 4.198 0 00-2.302-.61 4.326 4.326 0 00-2.286.588 3.904 3.904 0 00-1.492 1.683 5.95 5.95 0 00-.527 2.599 5.78 5.78 0 00.532 2.569 3.954 3.954 0 001.5 1.679 4.323 4.323 0 002.298.593 4.502 4.502 0 002.407-.65 4.157 4.157 0 001.612-1.842l-.903-.383a3.502 3.502 0 01-1.272 1.428 3.482 3.482 0 01-1.874.498c-1.033 0-1.835-.34-2.404-1.023-.524-.628-.804-1.497-.844-2.598l7.488-.002zm-6.639-3.183c.568-.683 1.376-1.025 2.422-1.026 1.012 0 1.789.33 2.331.989.462.56.735 1.34.825 2.335h-6.403c.078-.96.353-1.726.825-2.298zM153.921 50.71a3.07 3.07 0 011.808-.498 3.192 3.192 0 011.731.472c.503.316.89.783 1.106 1.334l.96-.35a3.337 3.337 0 00-1.419-1.768 4.365 4.365 0 00-2.37-.65 4.267 4.267 0 00-2.331.604 3.876 3.876 0 00-1.454 1.7 6.537 6.537 0 00-.008 5.08 3.907 3.907 0 001.444 1.714c.634.413 1.414.619 2.341.619a4.192 4.192 0 002.286-.61 4.033 4.033 0 001.509-1.777l-.98-.325a2.896 2.896 0 01-1.11 1.312 3.176 3.176 0 01-1.71.452c-1.064 0-1.866-.357-2.405-1.07-.539-.714-.817-1.659-.836-2.835a5.67 5.67 0 01.369-2.028 2.98 2.98 0 011.069-1.376zM163.358 46.956h-.995v2.554h-2.074v.895h2.074v5.114c0 .426.009.805.025 1.137.021.338.109.67.258.974.172.381.47.692.844.882.399.198.836.308 1.281.325.49.025.98-.016 1.458-.123v-.887a5.191 5.191 0 01-1.706.039 1.32 1.32 0 01-.98-.712 1.62 1.62 0 01-.177-.695 31.77 31.77 0 01-.011-.958v-5.094h2.871v-.897h-2.871l.003-2.554zM169.161 46.401h-.986v1.252h.986v-1.252zM169.161 49.512h-.986v9.205h.986v-9.205zM177.87 49.874a4.758 4.758 0 00-4.663-.013 3.927 3.927 0 00-1.47 1.7 5.912 5.912 0 00-.515 2.537c-.017.87.156 1.733.507 2.53a3.974 3.974 0 001.47 1.723 4.218 4.218 0 002.34.622c.821.024 1.63-.19 2.331-.614a3.919 3.919 0 001.47-1.71 6.035 6.035 0 00.505-2.55 5.927 5.927 0 00-.502-2.515 3.919 3.919 0 00-1.473-1.71zm.103 7.053c-.544.728-1.361 1.092-2.45 1.092-1.07 0-1.88-.358-2.43-1.074-.55-.716-.826-1.665-.828-2.847a5.3 5.3 0 01.356-2.015 2.982 2.982 0 011.076-1.373 3.13 3.13 0 011.826-.498c1.089 0 1.903.352 2.442 1.055.539.704.811 1.648.817 2.831.003 1.159-.266 2.102-.806 2.83h-.003zM189.359 52.308a4.593 4.593 0 00-.433-1.206 3.469 3.469 0 00-.737-.955 3.15 3.15 0 00-1.05-.626 3.958 3.958 0 00-1.367-.222 4.04 4.04 0 00-1.945.464c-.493.27-.906.661-1.201 1.137v-1.39h-.9v9.205h.995v-4.966a5.359 5.359 0 01.175-1.404 3.23 3.23 0 01.532-1.112c.238-.313.55-.563.908-.727a3.04 3.04 0 011.307-.26c.435-.011.866.073 1.264.246.355.162.662.412.892.725.251.349.432.742.533 1.16a6.28 6.28 0 01.174 1.55v4.79h.995v-5.035a6.473 6.473 0 00-.142-1.374zM192.777 51.283v-1.695h-.653v-.224h1.557v.224h-.654v1.695h-.25zM193.944 51.283v-1.92h.217l.73 1.53.725-1.53h.221v1.92h-.227v-1.398l-.654 1.398h-.129l-.653-1.398v1.398h-.23z"/></symbol><symbol viewBox="0 0 84 82" id="partners--hp" xmlns="http://www.w3.org/2000/svg"><g clip-path="url(#fclip0_380_2510)"><path d="M42.117 0L33.08 24.733l6.143.002c4.425.001 6.308 3.407 4.915 7.221L35.152 56.55H26.11l9.886-27.06h-4.655l-9.885 27.06h-9.12L32.62 1.025C13.94 5.185 0 21.502 0 40.998c0 19.193 13.509 35.303 31.75 39.77l20.493-56.173h14.842c3.07 0 6.931 2.02 5.263 6.62l-8.333 22.97c-1.065 2.933-3.595 3.528-5.61 3.528H49.28l-8.849 24.255a43.91 43.91 0 001.568.031c23.196 0 42-18.356 42-41C84 18.392 65.26.06 42.115-.001h.002zM59.6 29.423L50.994 53.01h4.583l8.61-23.587H59.6z"/></g><defs><clipPath id="fclip0_380_2510"><path d="M0 0h84v82H0z"/></clipPath></defs></symbol><symbol viewBox="0 0 163 82" id="partners--hp-enterprise" xmlns="http://www.w3.org/2000/svg"><g clip-path="url(#gclip0_380_2564)"><path d="M52.368 19.173H3.57V9.974h48.798v9.2zm3.487-12.75H.082v16.293h55.773V6.422zM3.57 49.657H.084V33.359H3.57v6.438H9.8v-6.438h3.486v16.298H9.799v-6.752H3.57v6.752zM18.598 42.463h4.152c-.077-1.198-.563-2.034-1.922-2.034-1.026 0-1.923.444-2.23 2.034zm2.64 7.404c-3.537 0-5.946-2.269-5.946-5.995 0-3.625 2.358-6.127 5.485-6.127 3.409 0 5.1 2.32 5.1 5.788v1.304h-7.279c.411 1.797 1.794 2.266 3.179 2.266 1.204 0 2.075-.26 3.151-.939h.13v2.685c-.923.68-2.231 1.018-3.82 1.018zM34.953 42.822l-1.795 6.83h-3.05l-3.486-11.465v-.13h3.333l1.896 6.856 1.795-6.856h2.717l1.82 6.856 1.923-6.856h3.204v.13l-3.486 11.465h-3.051l-1.82-6.83zM48.92 49.836c-2.768 0-3.896-1.12-3.896-3.753V33.281h3.383v12.566c0 .809.308 1.095.974 1.095.23 0 .564-.078.769-.156h.052v2.841a4.009 4.009 0 01-1.282.208M54.49 42.463h4.152c-.078-1.198-.564-2.034-1.923-2.034-1.024 0-1.922.444-2.23 2.034zm2.64 7.404c-3.538 0-5.946-2.269-5.946-5.995 0-3.625 2.358-6.127 5.484-6.127 3.409 0 5.1 2.32 5.1 5.788v1.304H54.49c.41 1.797 1.795 2.266 3.178 2.266 1.206 0 2.076-.26 3.154-.939h.128v2.685c-.923.68-2.23 1.018-3.82 1.018zM75.706 38.057h2.512v2.763h-2.512v4.718c0 1.018.385 1.487 1.41 1.487.282 0 .641-.027 1.026-.157h.076v2.711c-.436.157-1.102.338-2.075.338-2.744 0-3.82-1.276-3.82-4.222V40.82H67.99v4.718c0 1.018.384 1.487 1.409 1.487.283 0 .642-.027 1.026-.157h.077v2.711c-.436.157-1.103.338-2.076.338-2.743 0-3.82-1.276-3.82-4.222V40.82h-1.743v-2.763h1.743v-3.18h3.384v3.18h4.332v-3.18h3.383v3.18zM89.585 41.294c1.77 0 2.615-1.016 2.615-2.476 0-1.513-.844-2.53-2.615-2.53h-2.204v5.006h2.204zm6.153-2.476c0 3.546-2.332 5.474-5.87 5.474H87.38v5.291h-3.484V33.285h5.97c3.538 0 5.871 1.93 5.871 5.527M103.199 45.97v-.99c-.513-.286-1.178-.39-1.871-.39-1.102 0-1.768.415-1.768 1.354 0 .965.666 1.383 1.665 1.383.948 0 1.666-.496 1.974-1.357zm.102 2.503c-.743.913-1.844 1.356-3.025 1.356-2.228 0-4.05-1.38-4.05-3.833 0-2.267 1.822-3.78 4.435-3.78.819 0 1.667.131 2.538.39V42.4c0-1.252-.692-1.798-2.511-1.798-1.154 0-2.256.337-3.205.885h-.127v-2.764c.87-.52 2.41-.964 3.92-.964 3.435 0 5.306 1.668 5.306 4.588v7.273h-3.281v-1.147zM108.238 43.812c0-3.729 2.59-6.075 5.973-6.075 1.205 0 2.332.261 3.178.886v2.946h-.129c-.744-.573-1.614-.912-2.613-.912-1.692 0-2.974 1.174-2.974 3.155 0 1.98 1.282 3.128 2.974 3.128.999 0 1.869-.34 2.613-.914h.129v2.946c-.846.626-1.973.887-3.178.887-3.383 0-5.973-2.319-5.973-6.047M122.913 44.351v5.265h-3.382V33.318h3.382v9.28l3.409-4.588h3.844v.13l-4.1 5.266 4.1 6.074v.13h-3.87l-3.383-5.264M137.764 45.97v-.99c-.512-.286-1.179-.39-1.871-.39-1.101 0-1.768.415-1.768 1.354 0 .965.667 1.383 1.664 1.383.951 0 1.668-.496 1.975-1.357zm.103 2.503c-.744.913-1.847 1.356-3.025 1.356-2.23 0-4.049-1.38-4.049-3.833 0-2.267 1.819-3.78 4.435-3.78.82 0 1.664.131 2.536.39V42.4c0-1.252-.692-1.798-2.512-1.798-1.152 0-2.256.337-3.204.885h-.128v-2.764c.872-.52 2.41-.964 3.921-.964 3.437 0 5.307 1.668 5.307 4.588v7.273h-3.281v-1.147zM146.87 39.855c.614-1.278 1.512-2.007 2.768-2.007.461 0 .922.104 1.1.209v3.284h-.127c-.385-.157-.845-.26-1.486-.26-1.051 0-1.871.625-2.154 1.824v6.674h-3.382v-11.6h3.281v1.877M159.688 45.7V41.97c-.564-.833-1.306-1.198-2.154-1.198-1.485 0-2.485 1.096-2.485 3.077 0 1.98 1 3.05 2.485 3.05.848 0 1.59-.366 2.154-1.2zm.102 2.738c-.718.939-1.846 1.459-3.383 1.459-2.923 0-4.793-2.71-4.793-6.047 0-3.337 1.87-6.074 4.793-6.074 1.486 0 2.563.47 3.281 1.33v-5.761h3.384v16.287h-3.282v-1.198M.122 54.962h9.894v1.98H2.352v4.979h6.945v1.93H2.352v5.422h7.664v1.98H.122V54.966M18.156 59.548c2.537 0 3.947 1.695 3.947 4.483v7.221h-2.127v-7.168c0-1.487-.744-2.555-2.358-2.555a2.97 2.97 0 00-2.845 2.085v7.638h-2.127V59.788h2.127v1.668c.666-1.07 1.794-1.903 3.383-1.903M27.792 59.728h2.896v1.851h-2.896v6.178c0 1.302.666 1.746 1.87 1.746.333 0 .692-.051.949-.156h.077v1.85c-.307.13-.744.235-1.333.235-2.64 0-3.69-1.226-3.69-3.466v-6.387h-1.948v-1.851h1.948v-3.049h2.127v3.049zM34.246 64.404h5.612c-.076-1.694-.897-2.997-2.64-2.997-1.613 0-2.665 1.225-2.972 2.997zm3.357 7.091c-3.307 0-5.562-2.242-5.562-5.84 0-3.597 2.102-6.1 5.153-6.1 3.1 0 4.715 2.27 4.715 5.631v.991h-7.74c.23 2.32 1.692 3.441 3.716 3.441 1.256 0 2.153-.287 3.152-1.043h.078v1.904c-.923.73-2.128 1.016-3.512 1.016zM46.622 61.526c.487-1.225 1.564-1.954 2.793-1.954.488 0 .924.077 1.103.182v2.136h-.077c-.308-.155-.82-.233-1.333-.233-1.152 0-2.127.78-2.486 2.085v7.481h-2.127V59.758h2.127v1.773M57.318 69.53c2.102 0 3.332-1.695 3.332-4.016 0-2.293-1.23-4.012-3.332-4.012-1.154 0-2.23.703-2.793 1.823v4.407c.563 1.12 1.64 1.797 2.793 1.797zm.36-9.984c3.356 0 5.15 2.79 5.15 5.968 0 3.182-1.794 5.971-5.15 5.971-1.385 0-2.564-.73-3.153-1.513v5.684h-2.128v-15.87h2.128v1.302c.589-.808 1.768-1.538 3.152-1.538M67.485 61.526c.486-1.225 1.563-1.954 2.793-1.954.487 0 .922.077 1.101.182v2.136h-.076c-.307-.155-.82-.233-1.332-.233-1.154 0-2.127.78-2.486 2.085v7.481h-2.127V59.758h2.127v1.773M74.468 55.142a1.356 1.356 0 110 2.711c-.717 0-1.359-.6-1.359-1.355 0-.757.642-1.356 1.36-1.356zM73.408 71.238h2.128V59.764h-2.128v11.474zM83.131 64.494c1.615.52 3.408 1.198 3.408 3.388 0 2.346-1.896 3.546-4.33 3.546-1.487 0-2.974-.366-3.82-1.043v-2.06h.103c.949.886 2.358 1.277 3.69 1.277 1.205 0 2.282-.47 2.282-1.46 0-1.016-.896-1.25-2.666-1.85-1.59-.521-3.357-1.122-3.357-3.284 0-2.217 1.793-3.52 4.075-3.52 1.332 0 2.511.287 3.46.939v2.086h-.077c-.921-.756-2-1.2-3.332-1.2-1.333 0-2.076.6-2.076 1.408 0 .913.82 1.173 2.64 1.773zM90.558 64.404h5.611c-.076-1.694-.896-2.997-2.64-2.997-1.614 0-2.664 1.225-2.971 2.997zm3.356 7.091c-3.306 0-5.56-2.242-5.56-5.84 0-3.597 2.1-6.1 5.15-6.1 3.103 0 4.716 2.27 4.716 5.631v.991h-7.74c.231 2.32 1.692 3.441 3.716 3.441 1.257 0 2.154-.287 3.152-1.043h.078v1.904c-.922.73-2.127 1.016-3.512 1.016z"/></g><defs><clipPath id="gclip0_380_2564"><path d="M0 0h163v82H0z"/></clipPath></defs></symbol><symbol viewBox="0 0 141 82" id="partners--lenovo" xmlns="http://www.w3.org/2000/svg"><path d="M59.21 29.458c-2.52 0-5.386 1.187-7.138 3.562l.001-.005v.001-3.185h-6.011v22.23h6.01v-12.65c0-2.276 1.738-4.696 4.957-4.696 2.487 0 5.061 1.757 5.061 4.697v12.65h6.012V38.28c0-5.113-3.602-8.823-8.891-8.823zM110.829 29.832l-5.435 15.143-5.434-15.143h-6.868l9.008 22.223h6.587l9.008-22.223h-6.866zM28.115 36.529c1.024-1.396 2.654-2.215 4.624-2.215 2.166 0 3.81 1.256 4.66 3.11L26.894 41.85c-.287-2.27.286-4.047 1.22-5.32zm11.55 8.698c-2.531 1.9-3.977 2.355-6.284 2.355-2.076 0-3.702-.655-4.848-1.803l15.369-6.474c-.336-2.413-1.237-4.568-2.625-6.207-2.02-2.381-5.008-3.641-8.647-3.641-6.61 0-11.595 4.952-11.595 11.492 0 6.71 4.996 11.49 12.257 11.49 4.068 0 8.228-1.958 10.174-4.245l-3.802-2.967zM20.462 46.456H6.8V23.183H.705V52.06h19.757v-5.605zM128.49 34.688c-3.358 0-5.795 2.583-5.795 6.258 0 3.51 2.582 6.259 5.875 6.259 3.359 0 5.795-2.655 5.795-6.259 0-3.508-2.581-6.258-5.875-6.258zm0 17.748c-6.575 0-11.726-4.974-11.726-11.49 0-6.442 5.187-11.489 11.806-11.489 6.575 0 11.725 4.973 11.725 11.49 0 6.44-5.186 11.489-11.805 11.489zM82.205 34.688c-3.357 0-5.793 2.583-5.793 6.258 0 3.51 2.58 6.259 5.875 6.259 3.357 0 5.794-2.655 5.794-6.259 0-3.508-2.581-6.258-5.876-6.258zm0 17.748c-6.574 0-11.724-4.974-11.724-11.49 0-6.442 5.185-11.489 11.806-11.489 6.573 0 11.725 4.973 11.725 11.49 0 6.44-5.187 11.489-11.807 11.489z"/></symbol><symbol viewBox="0 0 184 82" id="partners--microsoft" xmlns="http://www.w3.org/2000/svg"><path d="M76.521 28.13v23.579h-4.088V33.206h-.054l-7.303 18.503H62.35l-7.467-18.503h-.055v18.503h-3.76v-23.58h5.886l6.758 17.467h.11l7.139-17.467h5.56zm3.38 1.8c0-.654.217-1.2.708-1.637.49-.436 1.035-.655 1.69-.655.708 0 1.307.218 1.743.655.437.437.71.983.71 1.638 0 .655-.219 1.2-.71 1.637-.49.437-1.035.655-1.743.655-.71 0-1.254-.218-1.69-.655-.436-.491-.709-1.037-.709-1.637zm4.414 4.858V51.71h-3.979v-16.92h3.979zM96.36 48.816c.6 0 1.254-.11 1.962-.437a8.603 8.603 0 001.962-1.091v3.711a6.942 6.942 0 01-2.18.82c-.817.163-1.69.272-2.67.272-2.508 0-4.524-.764-6.05-2.347-1.58-1.583-2.344-3.602-2.344-6.004 0-2.73.818-4.967 2.398-6.714 1.58-1.746 3.815-2.62 6.759-2.62.763 0 1.526.11 2.234.273a7.43 7.43 0 011.799.655v3.821c-.6-.437-1.254-.819-1.853-1.037-.654-.218-1.308-.382-1.962-.382-1.581 0-2.835.491-3.816 1.528-.98 1.037-1.417 2.402-1.417 4.148 0 1.693.49 3.057 1.417 3.985.927.928 2.18 1.42 3.761 1.42zm15.206-14.3c.327 0 .6 0 .872.054.273.055.491.11.654.164v4.039a2.442 2.442 0 00-.926-.437c-.436-.109-.872-.218-1.472-.218-.981 0-1.798.437-2.452 1.255-.654.82-1.036 2.075-1.036 3.821v8.515h-3.979v-16.92h3.979v2.674h.055c.381-.928.926-1.638 1.635-2.183.763-.492 1.635-.764 2.67-.764zm1.744 9.006c0-2.784.818-5.022 2.344-6.66 1.58-1.637 3.761-2.456 6.54-2.456 2.616 0 4.687.765 6.159 2.347 1.472 1.583 2.235 3.712 2.235 6.387 0 2.729-.818 4.912-2.344 6.55-1.581 1.637-3.706 2.456-6.431 2.456-2.616 0-4.688-.764-6.214-2.293-1.526-1.583-2.289-3.711-2.289-6.331zm4.142-.164c0 1.747.382 3.111 1.2 4.039.817.928 1.962 1.42 3.433 1.42 1.417 0 2.562-.438 3.325-1.42.763-.928 1.144-2.292 1.144-4.148 0-1.802-.381-3.166-1.144-4.149-.763-.927-1.908-1.419-3.27-1.419-1.472 0-2.562.492-3.379 1.474-.927 1.037-1.309 2.402-1.309 4.203zm19.076-4.094c0 .546.164 1.037.545 1.365.382.327 1.145.71 2.398 1.2 1.581.656 2.726 1.365 3.325 2.13.654.818.981 1.746.981 2.892 0 1.583-.599 2.838-1.853 3.82-1.199.983-2.889 1.42-4.96 1.42-.708 0-1.471-.11-2.343-.273-.872-.164-1.581-.382-2.18-.655v-3.93c.708.492 1.526.928 2.343 1.201.818.273 1.581.437 2.289.437.872 0 1.581-.11 1.962-.382.436-.273.654-.655.654-1.256 0-.546-.218-.982-.654-1.419-.436-.382-1.308-.819-2.507-1.31-1.471-.6-2.507-1.31-3.106-2.074-.6-.764-.927-1.747-.927-2.947 0-1.529.6-2.784 1.799-3.767 1.199-.982 2.779-1.473 4.687-1.473.599 0 1.253.054 1.962.218.709.164 1.363.328 1.853.491v3.876a11.71 11.71 0 00-1.853-.928 5.762 5.762 0 00-2.071-.382c-.763 0-1.363.163-1.744.436-.382.382-.6.764-.6 1.31zm8.939 4.258c0-2.784.817-5.022 2.343-6.66 1.581-1.637 3.761-2.456 6.541-2.456 2.616 0 4.687.765 6.158 2.347 1.472 1.583 2.235 3.712 2.235 6.387 0 2.729-.818 4.912-2.344 6.55-1.58 1.637-3.706 2.456-6.431 2.456-2.616 0-4.687-.764-6.213-2.293-1.472-1.583-2.289-3.711-2.289-6.331zm4.142-.164c0 1.747.381 3.111 1.199 4.039.817.928 1.962 1.42 3.434 1.42 1.417 0 2.561-.438 3.324-1.42.763-.928 1.145-2.292 1.145-4.148 0-1.802-.382-3.166-1.145-4.149-.763-.927-1.907-1.419-3.27-1.419-1.471 0-2.562.492-3.379 1.474-.872 1.037-1.308 2.402-1.308 4.203zm26.379-5.295h-5.941V51.71h-4.033V38.063h-2.834v-3.275h2.834v-2.347c0-1.746.6-3.22 1.744-4.366 1.145-1.146 2.616-1.692 4.415-1.692.49 0 .926.054 1.308.054.381 0 .708.11.981.219v3.438a6.698 6.698 0 00-.709-.273 3.614 3.614 0 00-1.144-.163c-.818 0-1.472.273-1.908.764-.436.491-.654 1.31-.654 2.292v2.02h5.941v-3.82l3.979-1.202v5.022H184v3.275h-4.033v7.914c0 1.037.218 1.747.545 2.183.381.437.981.655 1.798.655.218 0 .491-.054.818-.163.327-.11.599-.218.817-.382v3.275c-.272.163-.654.273-1.253.382-.6.109-1.145.163-1.744.163-1.69 0-2.943-.436-3.761-1.31-.817-.873-1.253-2.237-1.253-4.039l.054-8.624zM18.64 20.27H0v18.667h18.64V20.27zM39.242 20.27h-18.64v18.667h18.64V20.27zM18.64 40.902H0v18.667h18.64V40.902zM39.242 40.902h-18.64v18.667h18.64V40.902z"/></symbol><symbol viewBox="0 0 29 29" id="phone" xmlns="http://www.w3.org/2000/svg"><mask id="ja" maskUnits="userSpaceOnUse" x="-.498" y="-.503" width="30" height="30"><path d="M-.498-.503h30v30h-30z"/><path d="M23.9 2.133a.874.874 0 11.874-1.516 7.437 7.437 0 012.86 9.91.875.875 0 01-1.547-.817 5.688 5.688 0 00-2.188-7.577zm-1.75 3.03a.874.874 0 11.874-1.515 3.938 3.938 0 011.596 5.084.875.875 0 01-1.584-.746 2.187 2.187 0 00-.887-2.822zM5.095 26.863a.874.874 0 11-.875 1.516 7.438 7.438 0 01-2.86-9.91.875.875 0 111.547.817 5.688 5.688 0 002.188 7.577zm1.75-3.031a.874.874 0 11-.875 1.515 3.938 3.938 0 01-1.596-5.083.875.875 0 011.583.745 2.188 2.188 0 00.888 2.823zm10.46-18.55a1.678 1.678 0 00-2.062-1.218l-6.45 1.759c-.918.25-1.488 1.23-1.236 2.19l4.14 15.703a1.675 1.675 0 002.06 1.218l6.454-1.758c.917-.25 1.488-1.23 1.236-2.191L17.306 5.28h-.002zm-2.509-2.909a3.41 3.41 0 014.197 2.45l4.139 15.703c.495 1.875-.606 3.833-2.476 4.344l-6.454 1.759a3.41 3.41 0 01-4.197-2.45L5.867 8.47C5.374 6.6 6.474 4.64 8.345 4.128l6.452-1.759v.003zm-.852 19.79a.897.897 0 01.632-1.08l3.118-.849a.85.85 0 011.056.62.898.898 0 01-.634 1.077L15 22.781a.854.854 0 01-1.055-.62z"/></mask><path d="M23.9 2.133a.874.874 0 11.874-1.516 7.437 7.437 0 012.86 9.91.875.875 0 01-1.547-.817 5.688 5.688 0 00-2.188-7.577zm-1.75 3.03a.874.874 0 11.874-1.515 3.938 3.938 0 011.596 5.084.875.875 0 01-1.584-.746 2.187 2.187 0 00-.887-2.822zM5.095 26.863a.874.874 0 11-.875 1.516 7.438 7.438 0 01-2.86-9.91.875.875 0 111.547.817 5.688 5.688 0 002.188 7.577zm1.75-3.031a.874.874 0 11-.875 1.515 3.938 3.938 0 01-1.596-5.083.875.875 0 011.583.745 2.188 2.188 0 00.888 2.823zm10.46-18.55a1.678 1.678 0 00-2.062-1.218l-6.45 1.759c-.918.25-1.488 1.23-1.236 2.19l4.14 15.703a1.675 1.675 0 002.06 1.218l6.454-1.758c.917-.25 1.488-1.23 1.236-2.191L17.306 5.28h-.002zm-2.509-2.909a3.41 3.41 0 014.197 2.45l4.139 15.703c.495 1.875-.606 3.833-2.476 4.344l-6.454 1.759a3.41 3.41 0 01-4.197-2.45L5.867 8.47C5.374 6.6 6.474 4.64 8.345 4.128l6.452-1.759v.003zm-.852 19.79a.897.897 0 01.632-1.08l3.118-.849a.85.85 0 011.056.62.898.898 0 01-.634 1.077L15 22.781a.854.854 0 01-1.055-.62z"/><path d="M23.9 2.133a.874.874 0 11.874-1.516 7.437 7.437 0 012.86 9.91.875.875 0 01-1.547-.817 5.688 5.688 0 00-2.188-7.577zm-1.75 3.03a.874.874 0 11.874-1.515 3.938 3.938 0 011.596 5.084.875.875 0 01-1.584-.746 2.187 2.187 0 00-.887-2.822zM5.095 26.863a.874.874 0 11-.875 1.516 7.438 7.438 0 01-2.86-9.91.875.875 0 111.547.817 5.688 5.688 0 002.188 7.577zm1.75-3.031a.874.874 0 11-.875 1.515 3.938 3.938 0 01-1.596-5.083.875.875 0 011.583.745 2.188 2.188 0 00.888 2.823zm10.46-18.55a1.678 1.678 0 00-2.062-1.218l-6.45 1.759c-.918.25-1.488 1.23-1.236 2.19l4.14 15.703a1.675 1.675 0 002.06 1.218l6.454-1.758c.917-.25 1.488-1.23 1.236-2.191L17.306 5.28h-.002zm-2.509-2.909a3.41 3.41 0 014.197 2.45l4.139 15.703c.495 1.875-.606 3.833-2.476 4.344l-6.454 1.759a3.41 3.41 0 01-4.197-2.45L5.867 8.47C5.374 6.6 6.474 4.64 8.345 4.128l6.452-1.759v.003zm-.852 19.79a.897.897 0 01.632-1.08l3.118-.849a.85.85 0 011.056.62.898.898 0 01-.634 1.077L15 22.781a.854.854 0 01-1.055-.62z" mask="url(#ja)"/></symbol><symbol viewBox="0 0 15 15" id="search" xmlns="http://www.w3.org/2000/svg"><path d="M10.417 9.167h-.659l-.233-.225a5.393 5.393 0 001.308-3.525 5.416 5.416 0 10-5.416 5.416 5.393 5.393 0 003.525-1.308l.225.233v.659l4.166 4.158 1.242-1.242-4.158-4.166zm-5 0a3.745 3.745 0 01-3.75-3.75 3.745 3.745 0 013.75-3.75 3.745 3.745 0 013.75 3.75 3.745 3.745 0 01-3.75 3.75z"/></symbol><symbol viewBox="0 0 37 29" id="service-icons--cloud-computing" xmlns="http://www.w3.org/2000/svg"><path d="M18.515 3.514a9.643 9.643 0 019.47 7.777c.107.544.549.96 1.1 1.034a5.268 5.268 0 01-.718 10.484h-4.574v2.587h4.575a7.855 7.855 0 001.958-15.457c-1.694-6.482-8.298-10.403-14.81-8.768l.048.194-.048-.194A12.23 12.23 0 006.308 11.99a6.762 6.762 0 001.281 13.406s0 0 0 0h5.668v-2.587H7.589a4.175 4.175 0 010-8.35c.714 0 1.293-.579 1.293-1.293h0c-.005-5.326 4.308-9.647 9.633-9.652z"/><path d="M17.608 14.435h0l-4.375 4.375-.142.141.142.142 1.542 1.542.14.14.142-.14 2.174-2.165V28.677H19.82V18.472l2.163 2.163.141.141.142-.141 1.541-1.542.142-.142-.142-.141-4.374-4.375h0a1.294 1.294 0 00-1.824 0z"/></symbol><symbol viewBox="0 0 34 34" id="service-icons--earth" xmlns="http://www.w3.org/2000/svg"><path d="M16.875 0c-5.579 0-10.8 2.76-13.947 7.385A16.74 16.74 0 000 16.875a16.74 16.74 0 002.928 9.49 16.865 16.865 0 0013.947 7.385c5.579 0 10.8-2.76 13.947-7.385a16.74 16.74 0 002.928-9.49 16.74 16.74 0 00-2.928-9.49A16.852 16.852 0 0016.875 0zm11.098 6.949h-4.418c-.575-1.688-1.3-3.117-2.134-4.24a15.002 15.002 0 016.552 4.24zM10.69 15.882c.07-2.461.417-4.844.992-6.948h10.374c.575 2.104.923 4.487.992 6.948H10.691zm12.368 1.986c-.07 2.461-.417 4.844-.992 6.948H11.684c-.576-2.104-.924-4.487-.993-6.948h12.368zM16.875 1.985c1.658 0 3.335 1.837 4.536 4.964H12.34c1.2-3.127 2.878-4.964 4.536-4.964zm-4.546.725c-.834 1.122-1.559 2.551-2.135 4.239H5.777a15.002 15.002 0 016.552-4.24zm-8.05 6.224h5.33c-.536 2.124-.844 4.506-.903 6.948h-6.69a14.919 14.919 0 012.262-6.948zm0 15.882a14.807 14.807 0 01-2.264-6.948h6.69c.07 2.442.378 4.824.904 6.948h-5.33zm1.498 1.986h4.417c.576 1.687 1.3 3.116 2.135 4.238a15.002 15.002 0 01-6.552-4.238zm11.098 4.963c-1.658 0-3.335-1.837-4.536-4.963h9.072c-1.2 3.126-2.878 4.963-4.536 4.963zm4.546-.725c.834-1.112 1.559-2.551 2.134-4.238h4.418a15.003 15.003 0 01-6.552 4.238zm8.05-6.224h-5.33c.536-2.124.844-4.506.904-6.948h6.69a14.919 14.919 0 01-2.263 6.948zm-4.427-8.934c-.069-2.442-.377-4.824-.903-6.948h5.33a14.807 14.807 0 012.264 6.948h-6.69z"/></symbol><symbol viewBox="0 0 38 27" id="service-icons--laptop" xmlns="http://www.w3.org/2000/svg"><path d="M35.492 19.857V3.682c0-.977-.4-1.913-1.114-2.604A3.872 3.872 0 0031.685 0H6.314c-1.01 0-1.978.388-2.692 1.078a3.622 3.622 0 00-1.114 2.604v16.175A3.778 3.778 0 00.515 21.47a3.58 3.58 0 00-.46 2.473 3.655 3.655 0 001.287 2.182c.68.56 1.542.87 2.434.876h30.448a3.882 3.882 0 002.434-.876 3.655 3.655 0 001.287-2.182 3.58 3.58 0 00-.46-2.473 3.778 3.778 0 00-1.993-1.612zM6.314 2.455h25.372c.337 0 .66.129.897.359.238.23.372.542.372.868v15.954H5.045V3.682c0-.326.134-.638.372-.868.238-.23.56-.36.897-.36zm27.91 22.09H3.776c-.336 0-.659-.129-.897-.359a1.207 1.207 0 01-.371-.868c0-.325.133-.638.371-.868.238-.23.56-.36.897-.36h30.448c.336 0 .659.13.897.36.238.23.371.543.371.868 0 .326-.133.638-.371.868-.238.23-.56.36-.897.36z"/></symbol><symbol viewBox="0 0 31 33" id="service-icons--support" xmlns="http://www.w3.org/2000/svg"><path d="M10.333 33c-.342 0-.67-.134-.913-.372a1.258 1.258 0 01-.378-.897v-6.346H6.458a6.524 6.524 0 01-4.564-1.861A6.298 6.298 0 010 19.038V6.346a6.298 6.298 0 011.894-4.485A6.524 6.524 0 016.458 0h18.084a6.524 6.524 0 014.564 1.861A6.298 6.298 0 0131 6.346v12.692a6.298 6.298 0 01-1.894 4.486 6.524 6.524 0 01-4.564 1.86h-4.69l-8.68 7.31a1.296 1.296 0 01-.839.306zM6.458 2.538a3.91 3.91 0 00-2.74 1.116 3.774 3.774 0 00-1.135 2.692v12.692c0 1.01.409 1.979 1.135 2.693a3.91 3.91 0 002.74 1.115h3.875c.343 0 .671.134.914.372.242.238.378.56.378.897v4.857l6.91-5.82c.234-.198.532-.306.84-.306h5.167a3.91 3.91 0 002.74-1.115 3.775 3.775 0 001.135-2.693V6.346c0-1.01-.409-1.978-1.135-2.692a3.91 3.91 0 00-2.74-1.116H6.458z"/><path d="M7.5 15a2.5 2.5 0 100-5 2.5 2.5 0 000 5zM15.5 15a2.5 2.5 0 100-5 2.5 2.5 0 000 5zM23.5 15a2.5 2.5 0 100-5 2.5 2.5 0 000 5z"/></symbol><symbol viewBox="0 0 28 27" id="service-icons--turn" xmlns="http://www.w3.org/2000/svg"><path d="M24.8 3.33a14.828 14.828 0 013.173 9.185C27.973 20.502 21.7 27 13.987 27 6.274 27 0 20.502 0 12.515c0-3.925 1.49-7.6 4.198-10.347a1.569 1.569 0 012.274.024c.621.657.61 1.711-.024 2.355-2.085 2.116-3.233 4.945-3.233 7.968 0 6.15 4.832 11.155 10.772 11.155 5.939 0 10.753-5.004 10.753-11.155 0-2.416-.741-4.737-2.134-6.636v1.336c0 .92-.72 1.665-1.608 1.665-.888 0-1.608-.746-1.608-1.665v-5.55c0-.92.756-1.665 1.643-1.665h5.36C27.28 0 28 .745 28 1.665s-.72 1.665-1.608 1.665H24.8z"/></symbol><symbol viewBox="0 0 31 37" id="service-icons--verified" xmlns="http://www.w3.org/2000/svg"><path d="M29.614 5.85L15.784.108a1.411 1.411 0 00-1.083 0L.871 5.85C.342 6.07 0 6.583 0 7.154v6.98c0 9.612 5.81 18.259 14.709 21.891.342.14.725.14 1.066 0a23.635 23.635 0 0014.71-21.89V7.153c0-.57-.344-1.085-.87-1.304zm-1.952 8.284c0 8.172-4.799 15.694-12.42 19.051-7.417-3.268-12.42-10.658-12.42-19.05v-6.04l12.42-5.156 12.42 5.157v6.038zm-13.98 4.758l6.066-6.066a1.411 1.411 0 111.996 1.995l-7.064 7.064a1.411 1.411 0 01-1.996 0L8.74 17.941a1.411 1.411 0 111.996-1.996l2.946 2.947z"/></symbol><symbol viewBox="0 0 7 12" id="socials--facebook" xmlns="http://www.w3.org/2000/svg"><path d="M6.244.002L4.687 0C2.94 0 1.81 1.16 1.81 2.953v1.362H.245A.245.245 0 000 4.56v1.973c0 .135.11.244.245.244h1.564v4.978c0 .135.11.245.245.245h2.041c.136 0 .245-.11.245-.245V6.777h1.83c.135 0 .244-.11.244-.244V4.56a.245.245 0 00-.244-.245H4.34V3.16c0-.555.132-.837.855-.837h1.048c.135 0 .245-.11.245-.245V.247a.245.245 0 00-.245-.245z"/></symbol><symbol viewBox="0 0 14 11" id="socials--gmail" xmlns="http://www.w3.org/2000/svg"><path d="M12.6 0H1.4C.63 0 .007.619.007 1.375L0 9.625C0 10.381.63 11 1.4 11h11.2c.77 0 1.4-.619 1.4-1.375v-8.25C14 .619 13.37 0 12.6 0zm0 2.75L7 6.188 1.4 2.75V1.375L7 4.813l5.6-3.438V2.75z"/></symbol><symbol viewBox="0 0 12 13" id="socials--instagram" xmlns="http://www.w3.org/2000/svg"><path d="M11.97 3.529c-.029-.638-.132-1.076-.28-1.456a2.929 2.929 0 00-.693-1.065A2.953 2.953 0 009.934.317C9.552.169 9.116.066 8.478.037 7.836.008 7.632 0 6.002 0S4.17.007 3.53.035c-.638.028-1.076.132-1.456.28a2.928 2.928 0 00-1.065.693c-.304.3-.541.664-.691 1.062-.148.383-.251.819-.28 1.456C.008 4.17 0 4.373 0 6.002c0 1.63.007 1.834.035 2.474.028.638.132 1.076.28 1.456.152.403.389.764.693 1.064.3.305.664.542 1.063.692.382.148.818.251 1.456.28.64.027.844.034 2.473.034 1.63 0 1.834-.007 2.474-.035.638-.028 1.076-.131 1.456-.279a3.07 3.07 0 001.756-1.756c.148-.382.25-.818.279-1.456.028-.64.035-.844.035-2.474 0-1.63-.002-1.833-.03-2.473zm-1.081 4.9c-.026.586-.124.903-.207 1.114a1.99 1.99 0 01-1.14 1.14c-.21.081-.529.18-1.113.206-.633.028-.823.035-2.424.035-1.602 0-1.794-.007-2.425-.035-.586-.026-.902-.125-1.113-.207a1.846 1.846 0 01-.69-.447c-.199-.195-.351-.43-.447-.69-.083-.21-.181-.53-.207-1.114-.028-.633-.035-.823-.035-2.424s.007-1.794.035-2.424c.026-.587.124-.903.207-1.114.096-.26.248-.497.45-.69.194-.199.429-.351.69-.447.21-.082.529-.18 1.113-.207.633-.028.823-.035 2.424-.035 1.604 0 1.794.007 2.425.035.586.026.902.125 1.113.207.26.096.497.248.69.448.199.194.351.429.447.689.082.211.181.53.207 1.114.028.633.035.823.035 2.424s-.007 1.789-.035 2.422z"/><path d="M6.003 2.92a3.084 3.084 0 10.001 6.167 3.084 3.084 0 00-.001-6.168zm0 5.082a2 2 0 110-4 2 2 0 010 4zM9.928 2.797a.72.72 0 11-1.44 0 .72.72 0 011.44 0z"/></symbol><symbol viewBox="0 0 13 12" id="socials--linkedin" xmlns="http://www.w3.org/2000/svg"><path d="M1.474 0c.8 0 1.474.674 1.474 1.474 0 .842-.716 1.494-1.474 1.473C.695 2.968.001 2.316.001 1.474-.02.653.653 0 1.474 0zM2.295 12H.611a.422.422 0 01-.42-.421V4.211c0-.232.168-.421.4-.421h1.704c.232 0 .421.189.421.42v7.39c0 .21-.189.4-.42.4zM12.19 6.358c0-1.558-1.158-2.78-2.716-2.78h-.442c-.842 0-1.663.4-2.105 1.053l-.21.211V4c0-.084-.127-.21-.211-.21H4.4c-.085 0-.211.084-.211.189v7.852c0 .085.126.169.21.169h2.316c.085 0 .21-.084.21-.168V7.284c0-.779.59-1.431 1.37-1.453.4 0 .757.148 1.03.422.253.252.359.61.359 1.01v4.526c0 .085.126.21.21.21h2.106c.084 0 .21-.125.21-.21V6.358h-.021z"/></symbol><symbol viewBox="0 0 12 14" id="socials--pinterest" xmlns="http://www.w3.org/2000/svg"><path d="M6.2 0C2.154 0 0 2.459 0 5.14c0 1.243.733 2.794 1.906 3.286.178.076.275.044.315-.113.035-.12.19-.692.264-.963.023-.086.011-.162-.063-.243-.39-.427-.698-1.205-.698-1.935 0-1.87 1.568-3.685 4.237-3.685 2.308 0 3.922 1.42 3.922 3.453 0 2.297-1.282 3.887-2.948 3.887-.923 0-1.61-.687-1.391-1.535.263-1.011.779-2.098.779-2.827 0-.653-.39-1.194-1.186-1.194-.939 0-1.7.881-1.7 2.064 0 .752.28 1.26.28 1.26s-.928 3.555-1.1 4.22c-.293 1.124.039 2.945.068 3.102.017.086.12.113.177.043.091-.114 1.214-1.632 1.528-2.73l.585-2.021c.31.53 1.202.973 2.153.973 2.828 0 4.872-2.357 4.872-5.28C11.99 2.096 9.459 0 6.2 0z"/></symbol><symbol viewBox="0 0 16 13" id="socials--twitter" xmlns="http://www.w3.org/2000/svg"><path d="M16 1.539a6.839 6.839 0 01-1.89.518A3.262 3.262 0 0015.553.244a6.555 6.555 0 01-2.08.794 3.28 3.28 0 00-5.674 2.243c0 .26.022.51.076.748A9.284 9.284 0 011.114.598a3.285 3.285 0 001.008 4.384A3.24 3.24 0 01.64 4.578v.036a3.295 3.295 0 002.628 3.223 3.274 3.274 0 01-.86.108 2.9 2.9 0 01-.621-.056 3.311 3.311 0 003.065 2.285 6.59 6.59 0 01-4.067 1.399c-.269 0-.527-.012-.785-.045A9.234 9.234 0 005.032 13c6.036 0 9.336-5 9.336-9.334 0-.145-.005-.285-.012-.424A6.544 6.544 0 0016 1.539z"/></symbol></svg>