<?xml version="1.0" encoding="UTF-8" standalone="no"?>
<svg
   width="15px"
   height="15px"
   viewBox="0 0 15 15"
   fill="none"
   version="1.1"
   id="svg1"
   sodipodi:docname="toggler-closed.svg"
   inkscape:version="1.3-dev (935d5b37, 2022-08-06)"
   xmlns:inkscape="http://www.inkscape.org/namespaces/inkscape"
   xmlns:sodipodi="http://sodipodi.sourceforge.net/DTD/sodipodi-0.dtd"
   xmlns="http://www.w3.org/2000/svg"
   xmlns:svg="http://www.w3.org/2000/svg">
  <defs
     id="defs1" />
  <sodipodi:namedview
     id="namedview1"
     pagecolor="#ffffff"
     bordercolor="#999999"
     borderopacity="1"
     inkscape:showpageshadow="0"
     inkscape:pageopacity="0"
     inkscape:pagecheckerboard="0"
     inkscape:deskcolor="#d1d1d1"
     showgrid="false"
     inkscape:zoom="28.2"
     inkscape:cx="7.3404255"
     inkscape:cy="7.1808511"
     inkscape:window-width="1920"
     inkscape:window-height="1017"
     inkscape:window-x="-8"
     inkscape:window-y="-8"
     inkscape:window-maximized="1"
     inkscape:current-layer="svg1" />
  <path
     fill-rule="evenodd"
     clip-rule="evenodd"
     d="m 14.716095,1.6543549 c 0.37854,-0.3784557 0.37854,-0.99205765 0,-1.37051321 -0.37837,-0.37845559 -0.992022,-0.37845559 -1.370392,0 L 7.500002,6.1295014 1.6543688,0.28384169 c -0.3784715,-0.37845558 -0.99207264,-0.37845558 -1.37052759,0 -0.37845494,0.37845557 -0.37845494,0.99205751 0,1.37051321 L 6.1294913,7.5000147 0.28384121,13.345657 c -0.37845494,0.37854 -0.37845494,0.992025 0,1.370564 0.37845496,0.378372 0.99205609,0.378372 1.37052759,0 L 7.500002,8.8705277 13.345703,14.716221 c 0.37837,0.378372 0.992022,0.378372 1.370392,0 0.37854,-0.378539 0.37854,-0.992024 0,-1.370564 L 8.870513,7.5000147 Z"
     fill="currentColor"
     id="path1"
     style="stroke-width:1.68538" />
</svg>
