<svg width="29" height="29" viewBox="0 0 29 29" fill="none" xmlns="http://www.w3.org/2000/svg">
<mask id="path-1-outside-1_380_2650" maskUnits="userSpaceOnUse" x="-0.497803" y="-0.50293" width="30" height="30" fill="black">
<rect fill="white" x="-0.497803" y="-0.50293" width="30" height="30"/>
<path d="M23.8993 2.13272C23.7989 2.07569 23.7109 1.99937 23.6402 1.90817C23.5695 1.81698 23.5175 1.71269 23.4873 1.60133C23.4571 1.48996 23.4492 1.37372 23.464 1.25929C23.4789 1.14486 23.5163 1.03449 23.574 0.934561C23.6317 0.834626 23.7086 0.747092 23.8002 0.676997C23.8919 0.606902 23.9965 0.555631 24.1081 0.526136C24.2196 0.496641 24.3359 0.489504 24.4503 0.505137C24.5646 0.520769 24.6747 0.558862 24.7743 0.617222C26.4397 1.57892 27.6679 3.14835 28.201 4.99613C28.7342 6.84391 28.5309 8.82638 27.6338 10.5275C27.5226 10.7275 27.3375 10.876 27.1181 10.9411C26.8987 11.0063 26.6626 10.9829 26.4603 10.876C26.2579 10.7691 26.1055 10.5872 26.0357 10.3693C25.9659 10.1514 25.9842 9.91479 26.0868 9.71022C26.7724 8.40938 26.9276 6.89352 26.5198 5.48072C26.1119 4.06792 25.1727 2.86799 23.8993 2.13272ZM22.1493 5.16372C22.0489 5.10669 21.9609 5.03037 21.8902 4.93917C21.8195 4.84798 21.7675 4.74369 21.7373 4.63233C21.7071 4.52096 21.6992 4.40472 21.714 4.29029C21.7289 4.17586 21.7663 4.0655 21.824 3.96556C21.8817 3.86563 21.9586 3.77809 22.0502 3.708C22.1419 3.6379 22.2465 3.58663 22.3581 3.55714C22.4696 3.52764 22.5859 3.5205 22.7003 3.53614C22.8146 3.55177 22.9247 3.58986 23.0243 3.64822C23.8789 4.14147 24.5172 4.93765 24.8128 5.87913C25.1084 6.82061 25.0396 7.83875 24.6203 8.73197C24.5214 8.94199 24.3432 9.10414 24.1247 9.18274C23.9063 9.26134 23.6656 9.24996 23.4556 9.1511C23.2456 9.05224 23.0835 8.874 23.0049 8.65559C22.9263 8.43718 22.9376 8.19649 23.0365 7.98647C23.269 7.49034 23.3068 6.92502 23.1425 6.40233C22.9782 5.87963 22.6238 5.43763 22.1493 5.16372ZM5.0955 26.862C5.19582 26.919 5.28386 26.9953 5.35456 27.0865C5.42527 27.1777 5.47723 27.282 5.50746 27.3934C5.5377 27.5047 5.54561 27.621 5.53073 27.7354C5.51586 27.8498 5.4785 27.9602 5.4208 28.0601C5.3631 28.1601 5.2862 28.2476 5.19454 28.3177C5.10287 28.3878 4.99824 28.4391 4.88668 28.4686C4.77512 28.4981 4.65883 28.5052 4.5445 28.4896C4.43016 28.4739 4.32005 28.4358 4.2205 28.3775C2.55507 27.4158 1.32689 25.8463 0.793732 23.9986C0.260574 22.1508 0.463889 20.1683 1.36101 18.4672C1.4132 18.3631 1.48567 18.2704 1.57414 18.1947C1.66262 18.1189 1.76533 18.0616 1.87626 18.0261C1.98718 17.9905 2.10408 17.9775 2.22011 17.9877C2.33614 17.998 2.44895 18.0313 2.55194 18.0857C2.65493 18.1401 2.74602 18.2145 2.81987 18.3046C2.89372 18.3946 2.94884 18.4986 2.98201 18.6102C3.01517 18.7219 3.02571 18.839 3.013 18.9548C3.00029 19.0706 2.9646 19.1827 2.908 19.2845C2.22233 20.5853 2.06713 22.1012 2.47498 23.514C2.88284 24.9268 3.82203 26.1267 5.0955 26.862ZM6.8455 23.831C6.94582 23.888 7.03386 23.9643 7.10456 24.0555C7.17526 24.1467 7.22723 24.251 7.25746 24.3624C7.2877 24.4737 7.29561 24.59 7.28073 24.7044C7.26586 24.8188 7.2285 24.9292 7.1708 25.0291C7.1131 25.1291 7.0362 25.2166 6.94454 25.2867C6.85287 25.3568 6.74824 25.4081 6.63668 25.4376C6.52512 25.4671 6.40883 25.4742 6.2945 25.4586C6.18016 25.4429 6.07005 25.4048 5.9705 25.3465C5.11585 24.8532 4.47755 24.057 4.18198 23.1156C3.88641 22.1741 3.95512 21.1559 4.37451 20.2627C4.47336 20.0527 4.6516 19.8906 4.87001 19.812C5.08842 19.7334 5.32911 19.7447 5.53913 19.8436C5.74915 19.9425 5.91129 20.1207 5.98989 20.3391C6.0685 20.5575 6.05711 20.7982 5.95825 21.0082C5.72577 21.5044 5.68793 22.0697 5.85222 22.5924C6.01651 23.1151 6.37098 23.5571 6.8455 23.831ZM17.3053 5.28097C17.2519 5.06449 17.1558 4.86082 17.0228 4.68191C16.8897 4.50299 16.7223 4.35242 16.5303 4.23899C16.3384 4.12557 16.1257 4.05158 15.9048 4.02136C15.6839 3.99114 15.4591 4.00528 15.2438 4.06297L8.79325 5.82172C7.87625 6.07197 7.30575 7.05197 7.55775 8.01272L11.6983 23.7155C11.7517 23.9318 11.8476 24.1353 11.9806 24.314C12.1135 24.4928 12.2808 24.6433 12.4725 24.7567C12.6643 24.8701 12.8768 24.9441 13.0975 24.9745C13.3182 25.0048 13.5427 24.9909 13.758 24.9335L20.212 23.1747C21.129 22.9245 21.6995 21.9445 21.4475 20.9837L17.307 5.28097H17.3053ZM14.7975 2.37247C15.234 2.25405 15.6896 2.22367 16.138 2.28308C16.5863 2.34249 17.0183 2.49052 17.4089 2.71853C17.7995 2.94655 18.1407 3.25 18.4129 3.61121C18.685 3.97242 18.8826 4.38417 18.994 4.82247L23.1328 20.5252C23.628 22.3995 22.5273 24.3577 20.6565 24.8687L14.2025 26.6275C13.766 26.7459 13.3104 26.7763 12.862 26.7169C12.4137 26.6575 11.9817 26.5094 11.5911 26.2814C11.2006 26.0534 10.8593 25.7499 10.5871 25.3887C10.315 25.0275 10.1174 24.6158 10.006 24.1775L5.86725 8.47122C5.37375 6.59872 6.4745 4.63872 8.34525 4.12772L14.7975 2.36897V2.37247ZM13.9453 22.1615C13.8894 21.9347 13.9241 21.695 14.0421 21.4934C14.1601 21.2918 14.3519 21.1442 14.577 21.0817L17.6955 20.233C17.8055 20.2025 17.9205 20.1945 18.0336 20.2094C18.1468 20.2242 18.2558 20.2616 18.3542 20.3194C18.4527 20.3772 18.5385 20.4541 18.6066 20.5457C18.6747 20.6373 18.7237 20.7416 18.7508 20.8525C18.806 21.0793 18.7708 21.3186 18.6525 21.5199C18.5343 21.7211 18.3423 21.8684 18.1173 21.9305L15.0005 22.781C14.8905 22.8114 14.7755 22.8194 14.6624 22.8046C14.5492 22.7897 14.4402 22.7523 14.3418 22.6945C14.2434 22.6368 14.1575 22.5598 14.0894 22.4682C14.0213 22.3767 13.9723 22.2723 13.9453 22.1615Z"/>
</mask>
<path d="M23.8993 2.13272C23.7989 2.07569 23.7109 1.99937 23.6402 1.90817C23.5695 1.81698 23.5175 1.71269 23.4873 1.60133C23.4571 1.48996 23.4492 1.37372 23.464 1.25929C23.4789 1.14486 23.5163 1.03449 23.574 0.934561C23.6317 0.834626 23.7086 0.747092 23.8002 0.676997C23.8919 0.606902 23.9965 0.555631 24.1081 0.526136C24.2196 0.496641 24.3359 0.489504 24.4503 0.505137C24.5646 0.520769 24.6747 0.558862 24.7743 0.617222C26.4397 1.57892 27.6679 3.14835 28.201 4.99613C28.7342 6.84391 28.5309 8.82638 27.6338 10.5275C27.5226 10.7275 27.3375 10.876 27.1181 10.9411C26.8987 11.0063 26.6626 10.9829 26.4603 10.876C26.2579 10.7691 26.1055 10.5872 26.0357 10.3693C25.9659 10.1514 25.9842 9.91479 26.0868 9.71022C26.7724 8.40938 26.9276 6.89352 26.5198 5.48072C26.1119 4.06792 25.1727 2.86799 23.8993 2.13272ZM22.1493 5.16372C22.0489 5.10669 21.9609 5.03037 21.8902 4.93917C21.8195 4.84798 21.7675 4.74369 21.7373 4.63233C21.7071 4.52096 21.6992 4.40472 21.714 4.29029C21.7289 4.17586 21.7663 4.0655 21.824 3.96556C21.8817 3.86563 21.9586 3.77809 22.0502 3.708C22.1419 3.6379 22.2465 3.58663 22.3581 3.55714C22.4696 3.52764 22.5859 3.5205 22.7003 3.53614C22.8146 3.55177 22.9247 3.58986 23.0243 3.64822C23.8789 4.14147 24.5172 4.93765 24.8128 5.87913C25.1084 6.82061 25.0396 7.83875 24.6203 8.73197C24.5214 8.94199 24.3432 9.10414 24.1247 9.18274C23.9063 9.26134 23.6656 9.24996 23.4556 9.1511C23.2456 9.05224 23.0835 8.874 23.0049 8.65559C22.9263 8.43718 22.9376 8.19649 23.0365 7.98647C23.269 7.49034 23.3068 6.92502 23.1425 6.40233C22.9782 5.87963 22.6238 5.43763 22.1493 5.16372ZM5.0955 26.862C5.19582 26.919 5.28386 26.9953 5.35456 27.0865C5.42527 27.1777 5.47723 27.282 5.50746 27.3934C5.5377 27.5047 5.54561 27.621 5.53073 27.7354C5.51586 27.8498 5.4785 27.9602 5.4208 28.0601C5.3631 28.1601 5.2862 28.2476 5.19454 28.3177C5.10287 28.3878 4.99824 28.4391 4.88668 28.4686C4.77512 28.4981 4.65883 28.5052 4.5445 28.4896C4.43016 28.4739 4.32005 28.4358 4.2205 28.3775C2.55507 27.4158 1.32689 25.8463 0.793732 23.9986C0.260574 22.1508 0.463889 20.1683 1.36101 18.4672C1.4132 18.3631 1.48567 18.2704 1.57414 18.1947C1.66262 18.1189 1.76533 18.0616 1.87626 18.0261C1.98718 17.9905 2.10408 17.9775 2.22011 17.9877C2.33614 17.998 2.44895 18.0313 2.55194 18.0857C2.65493 18.1401 2.74602 18.2145 2.81987 18.3046C2.89372 18.3946 2.94884 18.4986 2.98201 18.6102C3.01517 18.7219 3.02571 18.839 3.013 18.9548C3.00029 19.0706 2.9646 19.1827 2.908 19.2845C2.22233 20.5853 2.06713 22.1012 2.47498 23.514C2.88284 24.9268 3.82203 26.1267 5.0955 26.862ZM6.8455 23.831C6.94582 23.888 7.03386 23.9643 7.10456 24.0555C7.17526 24.1467 7.22723 24.251 7.25746 24.3624C7.2877 24.4737 7.29561 24.59 7.28073 24.7044C7.26586 24.8188 7.2285 24.9292 7.1708 25.0291C7.1131 25.1291 7.0362 25.2166 6.94454 25.2867C6.85287 25.3568 6.74824 25.4081 6.63668 25.4376C6.52512 25.4671 6.40883 25.4742 6.2945 25.4586C6.18016 25.4429 6.07005 25.4048 5.9705 25.3465C5.11585 24.8532 4.47755 24.057 4.18198 23.1156C3.88641 22.1741 3.95512 21.1559 4.37451 20.2627C4.47336 20.0527 4.6516 19.8906 4.87001 19.812C5.08842 19.7334 5.32911 19.7447 5.53913 19.8436C5.74915 19.9425 5.91129 20.1207 5.98989 20.3391C6.0685 20.5575 6.05711 20.7982 5.95825 21.0082C5.72577 21.5044 5.68793 22.0697 5.85222 22.5924C6.01651 23.1151 6.37098 23.5571 6.8455 23.831ZM17.3053 5.28097C17.2519 5.06449 17.1558 4.86082 17.0228 4.68191C16.8897 4.50299 16.7223 4.35242 16.5303 4.23899C16.3384 4.12557 16.1257 4.05158 15.9048 4.02136C15.6839 3.99114 15.4591 4.00528 15.2438 4.06297L8.79325 5.82172C7.87625 6.07197 7.30575 7.05197 7.55775 8.01272L11.6983 23.7155C11.7517 23.9318 11.8476 24.1353 11.9806 24.314C12.1135 24.4928 12.2808 24.6433 12.4725 24.7567C12.6643 24.8701 12.8768 24.9441 13.0975 24.9745C13.3182 25.0048 13.5427 24.9909 13.758 24.9335L20.212 23.1747C21.129 22.9245 21.6995 21.9445 21.4475 20.9837L17.307 5.28097H17.3053ZM14.7975 2.37247C15.234 2.25405 15.6896 2.22367 16.138 2.28308C16.5863 2.34249 17.0183 2.49052 17.4089 2.71853C17.7995 2.94655 18.1407 3.25 18.4129 3.61121C18.685 3.97242 18.8826 4.38417 18.994 4.82247L23.1328 20.5252C23.628 22.3995 22.5273 24.3577 20.6565 24.8687L14.2025 26.6275C13.766 26.7459 13.3104 26.7763 12.862 26.7169C12.4137 26.6575 11.9817 26.5094 11.5911 26.2814C11.2006 26.0534 10.8593 25.7499 10.5871 25.3887C10.315 25.0275 10.1174 24.6158 10.006 24.1775L5.86725 8.47122C5.37375 6.59872 6.4745 4.63872 8.34525 4.12772L14.7975 2.36897V2.37247ZM13.9453 22.1615C13.8894 21.9347 13.9241 21.695 14.0421 21.4934C14.1601 21.2918 14.3519 21.1442 14.577 21.0817L17.6955 20.233C17.8055 20.2025 17.9205 20.1945 18.0336 20.2094C18.1468 20.2242 18.2558 20.2616 18.3542 20.3194C18.4527 20.3772 18.5385 20.4541 18.6066 20.5457C18.6747 20.6373 18.7237 20.7416 18.7508 20.8525C18.806 21.0793 18.7708 21.3186 18.6525 21.5199C18.5343 21.7211 18.3423 21.8684 18.1173 21.9305L15.0005 22.781C14.8905 22.8114 14.7755 22.8194 14.6624 22.8046C14.5492 22.7897 14.4402 22.7523 14.3418 22.6945C14.2434 22.6368 14.1575 22.5598 14.0894 22.4682C14.0213 22.3767 13.9723 22.2723 13.9453 22.1615Z" fill="#F6921D"/>
<path d="M23.8993 2.13272C23.7989 2.07569 23.7109 1.99937 23.6402 1.90817C23.5695 1.81698 23.5175 1.71269 23.4873 1.60133C23.4571 1.48996 23.4492 1.37372 23.464 1.25929C23.4789 1.14486 23.5163 1.03449 23.574 0.934561C23.6317 0.834626 23.7086 0.747092 23.8002 0.676997C23.8919 0.606902 23.9965 0.555631 24.1081 0.526136C24.2196 0.496641 24.3359 0.489504 24.4503 0.505137C24.5646 0.520769 24.6747 0.558862 24.7743 0.617222C26.4397 1.57892 27.6679 3.14835 28.201 4.99613C28.7342 6.84391 28.5309 8.82638 27.6338 10.5275C27.5226 10.7275 27.3375 10.876 27.1181 10.9411C26.8987 11.0063 26.6626 10.9829 26.4603 10.876C26.2579 10.7691 26.1055 10.5872 26.0357 10.3693C25.9659 10.1514 25.9842 9.91479 26.0868 9.71022C26.7724 8.40938 26.9276 6.89352 26.5198 5.48072C26.1119 4.06792 25.1727 2.86799 23.8993 2.13272ZM22.1493 5.16372C22.0489 5.10669 21.9609 5.03037 21.8902 4.93917C21.8195 4.84798 21.7675 4.74369 21.7373 4.63233C21.7071 4.52096 21.6992 4.40472 21.714 4.29029C21.7289 4.17586 21.7663 4.0655 21.824 3.96556C21.8817 3.86563 21.9586 3.77809 22.0502 3.708C22.1419 3.6379 22.2465 3.58663 22.3581 3.55714C22.4696 3.52764 22.5859 3.5205 22.7003 3.53614C22.8146 3.55177 22.9247 3.58986 23.0243 3.64822C23.8789 4.14147 24.5172 4.93765 24.8128 5.87913C25.1084 6.82061 25.0396 7.83875 24.6203 8.73197C24.5214 8.94199 24.3432 9.10414 24.1247 9.18274C23.9063 9.26134 23.6656 9.24996 23.4556 9.1511C23.2456 9.05224 23.0835 8.874 23.0049 8.65559C22.9263 8.43718 22.9376 8.19649 23.0365 7.98647C23.269 7.49034 23.3068 6.92502 23.1425 6.40233C22.9782 5.87963 22.6238 5.43763 22.1493 5.16372ZM5.0955 26.862C5.19582 26.919 5.28386 26.9953 5.35456 27.0865C5.42527 27.1777 5.47723 27.282 5.50746 27.3934C5.5377 27.5047 5.54561 27.621 5.53073 27.7354C5.51586 27.8498 5.4785 27.9602 5.4208 28.0601C5.3631 28.1601 5.2862 28.2476 5.19454 28.3177C5.10287 28.3878 4.99824 28.4391 4.88668 28.4686C4.77512 28.4981 4.65883 28.5052 4.5445 28.4896C4.43016 28.4739 4.32005 28.4358 4.2205 28.3775C2.55507 27.4158 1.32689 25.8463 0.793732 23.9986C0.260574 22.1508 0.463889 20.1683 1.36101 18.4672C1.4132 18.3631 1.48567 18.2704 1.57414 18.1947C1.66262 18.1189 1.76533 18.0616 1.87626 18.0261C1.98718 17.9905 2.10408 17.9775 2.22011 17.9877C2.33614 17.998 2.44895 18.0313 2.55194 18.0857C2.65493 18.1401 2.74602 18.2145 2.81987 18.3046C2.89372 18.3946 2.94884 18.4986 2.98201 18.6102C3.01517 18.7219 3.02571 18.839 3.013 18.9548C3.00029 19.0706 2.9646 19.1827 2.908 19.2845C2.22233 20.5853 2.06713 22.1012 2.47498 23.514C2.88284 24.9268 3.82203 26.1267 5.0955 26.862ZM6.8455 23.831C6.94582 23.888 7.03386 23.9643 7.10456 24.0555C7.17526 24.1467 7.22723 24.251 7.25746 24.3624C7.2877 24.4737 7.29561 24.59 7.28073 24.7044C7.26586 24.8188 7.2285 24.9292 7.1708 25.0291C7.1131 25.1291 7.0362 25.2166 6.94454 25.2867C6.85287 25.3568 6.74824 25.4081 6.63668 25.4376C6.52512 25.4671 6.40883 25.4742 6.2945 25.4586C6.18016 25.4429 6.07005 25.4048 5.9705 25.3465C5.11585 24.8532 4.47755 24.057 4.18198 23.1156C3.88641 22.1741 3.95512 21.1559 4.37451 20.2627C4.47336 20.0527 4.6516 19.8906 4.87001 19.812C5.08842 19.7334 5.32911 19.7447 5.53913 19.8436C5.74915 19.9425 5.91129 20.1207 5.98989 20.3391C6.0685 20.5575 6.05711 20.7982 5.95825 21.0082C5.72577 21.5044 5.68793 22.0697 5.85222 22.5924C6.01651 23.1151 6.37098 23.5571 6.8455 23.831ZM17.3053 5.28097C17.2519 5.06449 17.1558 4.86082 17.0228 4.68191C16.8897 4.50299 16.7223 4.35242 16.5303 4.23899C16.3384 4.12557 16.1257 4.05158 15.9048 4.02136C15.6839 3.99114 15.4591 4.00528 15.2438 4.06297L8.79325 5.82172C7.87625 6.07197 7.30575 7.05197 7.55775 8.01272L11.6983 23.7155C11.7517 23.9318 11.8476 24.1353 11.9806 24.314C12.1135 24.4928 12.2808 24.6433 12.4725 24.7567C12.6643 24.8701 12.8768 24.9441 13.0975 24.9745C13.3182 25.0048 13.5427 24.9909 13.758 24.9335L20.212 23.1747C21.129 22.9245 21.6995 21.9445 21.4475 20.9837L17.307 5.28097H17.3053ZM14.7975 2.37247C15.234 2.25405 15.6896 2.22367 16.138 2.28308C16.5863 2.34249 17.0183 2.49052 17.4089 2.71853C17.7995 2.94655 18.1407 3.25 18.4129 3.61121C18.685 3.97242 18.8826 4.38417 18.994 4.82247L23.1328 20.5252C23.628 22.3995 22.5273 24.3577 20.6565 24.8687L14.2025 26.6275C13.766 26.7459 13.3104 26.7763 12.862 26.7169C12.4137 26.6575 11.9817 26.5094 11.5911 26.2814C11.2006 26.0534 10.8593 25.7499 10.5871 25.3887C10.315 25.0275 10.1174 24.6158 10.006 24.1775L5.86725 8.47122C5.37375 6.59872 6.4745 4.63872 8.34525 4.12772L14.7975 2.36897V2.37247ZM13.9453 22.1615C13.8894 21.9347 13.9241 21.695 14.0421 21.4934C14.1601 21.2918 14.3519 21.1442 14.577 21.0817L17.6955 20.233C17.8055 20.2025 17.9205 20.1945 18.0336 20.2094C18.1468 20.2242 18.2558 20.2616 18.3542 20.3194C18.4527 20.3772 18.5385 20.4541 18.6066 20.5457C18.6747 20.6373 18.7237 20.7416 18.7508 20.8525C18.806 21.0793 18.7708 21.3186 18.6525 21.5199C18.5343 21.7211 18.3423 21.8684 18.1173 21.9305L15.0005 22.781C14.8905 22.8114 14.7755 22.8194 14.6624 22.8046C14.5492 22.7897 14.4402 22.7523 14.3418 22.6945C14.2434 22.6368 14.1575 22.5598 14.0894 22.4682C14.0213 22.3767 13.9723 22.2723 13.9453 22.1615Z" stroke="#F6921D" stroke-width="0.5" mask="url(#path-1-outside-1_380_2650)"/>
</svg>
