<svg width="7" height="12" viewBox="0 0 7 12" fill="none" xmlns="http://www.w3.org/2000/svg">
<path d="M6.2435 0.0024968L4.68737 0C2.93911 0 1.80931 1.15914 1.80931 2.95322V4.31485H0.244687C0.109485 4.31485 0 4.42446 0 4.55966V6.53251C0 6.66771 0.10961 6.77719 0.244687 6.77719H1.80931V11.7553C1.80931 11.8905 1.91879 12 2.05399 12H4.09538C4.23058 12 4.34007 11.8904 4.34007 11.7553V6.77719H6.16947C6.30467 6.77719 6.41416 6.66771 6.41416 6.53251L6.41491 4.55966C6.41491 4.49474 6.38907 4.43257 6.34325 4.38663C6.29743 4.34069 6.23501 4.31485 6.1701 4.31485H4.34007V3.16058C4.34007 2.60579 4.47227 2.32415 5.19497 2.32415L6.24325 2.32377C6.37833 2.32377 6.48781 2.21416 6.48781 2.07909V0.247183C6.48781 0.112231 6.37845 0.00274648 6.2435 0.0024968Z" fill="#FDB1D0"/>
</svg>
