<svg width="12" height="13" viewBox="0 0 12 13" fill="none" xmlns="http://www.w3.org/2000/svg">
<path d="M11.9696 3.52872C11.9415 2.89099 11.8384 2.45256 11.6907 2.07265C11.5383 1.66938 11.3038 1.30834 10.9966 1.00821C10.6965 0.7034 10.3331 0.466552 9.93446 0.31653C9.55235 0.168798 9.11621 0.065669 8.47848 0.0375513C7.83599 0.00705231 7.63202 0 6.00248 0C4.37294 0 4.16897 0.00705231 3.52886 0.03517C2.89113 0.0632877 2.4527 0.166508 2.07288 0.314149C1.66953 0.466552 1.30848 0.701018 1.00835 1.00821C0.703544 1.30834 0.466788 1.67177 0.316674 2.07036C0.168942 2.45256 0.0658138 2.88861 0.0376962 3.52634C0.00719726 4.16883 0.000144958 4.3728 0.000144958 6.00234C0.000144958 7.63189 0.00719726 7.83585 0.0353149 8.47597C0.0634325 9.1137 0.166653 9.55213 0.314385 9.93204C0.466788 10.3353 0.703544 10.6963 1.00835 10.9965C1.30848 11.3013 1.67191 11.5381 2.0705 11.6882C2.4527 11.8359 2.88875 11.939 3.52657 11.9671C4.16659 11.9953 4.37065 12.0023 6.00019 12.0023C7.62973 12.0023 7.8337 11.9953 8.47381 11.9671C9.11154 11.939 9.54997 11.8359 9.92979 11.6882C10.7364 11.3763 11.3741 10.7386 11.686 9.93204C11.8336 9.54984 11.9369 9.1137 11.965 8.47597C11.9931 7.83585 12.0001 7.63189 12.0001 6.00234C12.0001 4.3728 11.9978 4.16883 11.9696 3.52872ZM10.8888 8.42907C10.863 9.01524 10.7645 9.33177 10.6825 9.54279C10.4808 10.0657 10.0658 10.4807 9.54292 10.6823C9.3319 10.7644 9.01308 10.8629 8.42921 10.8886C7.79615 10.9168 7.60628 10.9238 6.00486 10.9238C4.40344 10.9238 4.2112 10.9168 3.58043 10.8886C2.99426 10.8629 2.67773 10.7644 2.46671 10.6823C2.20651 10.5862 1.96966 10.4338 1.77742 10.2345C1.57812 10.0398 1.42572 9.80537 1.32955 9.54517C1.24749 9.33415 1.14903 9.01524 1.12329 8.43146C1.09508 7.7984 1.08812 7.60844 1.08812 6.00702C1.08812 4.40559 1.09508 4.21335 1.12329 3.58267C1.14903 2.9965 1.24749 2.67997 1.32955 2.46895C1.42572 2.20866 1.57812 1.9719 1.7798 1.77956C1.97433 1.58027 2.2088 1.42786 2.46909 1.33179C2.68011 1.24973 2.99902 1.15127 3.58281 1.12544C4.21587 1.09732 4.40582 1.09027 6.00715 1.09027C7.61096 1.09027 7.80082 1.09732 8.43159 1.12544C9.01775 1.15127 9.33428 1.24973 9.5453 1.33179C9.8055 1.42786 10.0424 1.58027 10.2346 1.77956C10.4339 1.97419 10.5863 2.20866 10.6825 2.46895C10.7645 2.67997 10.863 2.99879 10.8888 3.58267C10.9169 4.21573 10.924 4.40559 10.924 6.00702C10.924 7.60844 10.9169 7.79601 10.8888 8.42907Z" fill="#FDB1D0"/>
<path d="M6.00256 2.91919C4.30039 2.91919 2.91933 4.30016 2.91933 6.00243C2.91933 7.7047 4.30039 9.08567 6.00256 9.08567C7.70483 9.08567 9.0858 7.7047 9.0858 6.00243C9.0858 4.30016 7.70483 2.91919 6.00256 2.91919ZM6.00256 8.00245C4.89828 8.00245 4.00254 7.10681 4.00254 6.00243C4.00254 4.89805 4.89828 4.00241 6.00256 4.00241C7.10694 4.00241 8.00258 4.89805 8.00258 6.00243C8.00258 7.10681 7.10694 8.00245 6.00256 8.00245V8.00245Z" fill="#FDB1D0"/>
<path d="M9.92756 2.79719C9.92756 3.19468 9.60526 3.51699 9.20767 3.51699C8.81017 3.51699 8.48787 3.19468 8.48787 2.79719C8.48787 2.3996 8.81017 2.07739 9.20767 2.07739C9.60526 2.07739 9.92756 2.3996 9.92756 2.79719V2.79719Z" fill="#FDB1D0"/>
</svg>
