<svg width="13" height="12" viewBox="0 0 13 12" fill="none" xmlns="http://www.w3.org/2000/svg">
<path d="M1.4743 0C2.27431 0 2.94798 0.673677 2.94798 1.47368C2.94798 2.31578 2.23219 2.96842 1.4743 2.94736C0.69536 2.96842 0.000625595 2.31578 0.000625595 1.47368C-0.0204328 0.652619 0.653267 0 1.4743 0Z" fill="#FDB1D0"/>
<path d="M2.29539 12.0001H0.611172C0.379602 12.0001 0.190125 11.8106 0.190125 11.579V4.2106C0.190125 3.97903 0.358544 3.78955 0.590114 3.78955H2.29536C2.52693 3.78955 2.71641 3.97903 2.71641 4.2106V11.6001C2.71643 11.8106 2.52696 12.0001 2.29539 12.0001Z" fill="#FDB1D0"/>
<path d="M12.19 6.3578C12.19 4.79991 11.0321 3.57886 9.47423 3.57886H9.03213C8.19003 3.57886 7.36897 3.97885 6.92686 4.63149C6.7795 4.77885 6.71633 4.84203 6.71633 4.84203V3.99993C6.71633 3.91572 6.59 3.78939 6.50579 3.78939H4.40053C4.31632 3.78939 4.18999 3.8736 4.18999 3.97887V11.8315C4.18999 11.9157 4.31632 11.9999 4.40053 11.9999H6.71631C6.80051 11.9999 6.92684 11.9157 6.92684 11.8315V7.28411C6.92684 6.50516 7.51631 5.85252 8.29525 5.83148C8.69524 5.83148 9.05314 5.97884 9.32682 6.25253C9.57945 6.50516 9.68472 6.86306 9.68472 7.26305V11.7894C9.68472 11.8736 9.81105 11.9999 9.89526 11.9999H12.0005C12.0847 11.9999 12.2111 11.8736 12.2111 11.7894V6.3578H12.19Z" fill="#FDB1D0"/>
</svg>
