<svg width="12" height="14" viewBox="0 0 12 14" fill="none" xmlns="http://www.w3.org/2000/svg">
<path d="M6.20078 0C2.15278 0 0 2.45886 0 5.13998C0 6.38341 0.73298 7.93398 1.9063 8.42576C2.08447 8.50188 2.1814 8.46951 2.22109 8.31288C2.25617 8.19387 2.41034 7.62072 2.48511 7.35033C2.50819 7.2637 2.49619 7.18845 2.42234 7.10707C2.03277 6.68005 1.72352 5.90214 1.72352 5.17236C1.72352 3.3024 3.29195 1.48669 5.96077 1.48669C8.26864 1.48669 9.88322 2.90776 9.88322 4.94047C9.88322 7.23745 8.60097 8.82652 6.93469 8.82652C6.01246 8.82652 5.32564 8.14049 5.5435 7.29171C5.8066 6.28103 6.32264 5.19424 6.32264 4.46533C6.32264 3.81167 5.93307 3.2709 5.13732 3.2709C4.19848 3.2709 3.43688 4.15206 3.43688 5.33512C3.43688 6.08678 3.71752 6.5943 3.71752 6.5943C3.71752 6.5943 2.78883 10.1505 2.6162 10.8146C2.32449 11.939 2.6559 13.76 2.68451 13.9166C2.70205 14.0033 2.80452 14.0304 2.86176 13.9595C2.95315 13.8458 4.0757 12.3276 4.39049 11.2303C4.50496 10.8304 4.97484 9.20892 4.97484 9.20892C5.2841 9.73832 6.17678 10.182 7.12763 10.182C9.95615 10.182 12 7.82548 12 4.9011C11.9898 2.09747 9.45857 0 6.20078 0Z" fill="#FDB1D0"/>
</svg>
